<svg version="1.2" xmlns="http://www.w3.org/2000/svg" viewBox="0 0 3710 3710" width="3710" height="3710">
	<title>12290917_Wavy_Tech-12_Single-04-svg</title>
	<defs>
		<linearGradient id="g1" x2="1" gradientUnits="userSpaceOnUse" gradientTransform="matrix(-2035.799,-3520.231,1992.194,-1152.114,2243.778,3279.855)">
			<stop offset="0" stop-color="#ffc444"/>
			<stop offset=".996" stop-color="#f36f56"/>
		</linearGradient>
		<clipPath clipPathUnits="userSpaceOnUse" id="cp1">
			<path d="m1957.1 2634.34c38.58 47.42 75.62 82.07 115.47 126.65-246.37 75.07-470.11 192.61-719.75 269.18 54.55-332.18 158.05-507.55-68.26-825.57-106.2-149.25-359.25-412.28-352.53-598.64 7.65-212.32 156.78-214.41 60.48-366.35-150.53-237.49-127.34-556.21 263.24-579.05 385.48-22.54 721.56 921.76 619.63 1251.28-30.55 297.78-119.73 474.86 81.72 722.5z"/>
		</clipPath>
		<clipPath clipPathUnits="userSpaceOnUse" id="cp2">
			<path d="m2254.88 1880.63c15.74 292.03-159.9 273.87-385.13 260.48 103.47 251.97 194.95 501.11 286.9 754.28 150.88 6.73 259.08 8.73 296.23-170.82 42.03-203.07 59.55-321.65 264.63-422.14 205.08-100.48 327.96-302.22 201.41-492.26-133.17-200-17.36-535.27-242.95-647.57-393.06-195.69-437.47 413.93-421.09 718.03z"/>
		</clipPath>
		<clipPath clipPathUnits="userSpaceOnUse" id="cp3">
			<path d="m448.56 1551.22h1892.22v1550.72h-1892.22z"/>
		</clipPath>
		<linearGradient id="g2" x2="1" gradientUnits="userSpaceOnUse" gradientTransform="matrix(-481.072,1367.259,-1965.738,-691.648,1717.861,2099.685)">
			<stop offset=".004" stop-color="#e38ddd"/>
			<stop offset="1" stop-color="#9571f6"/>
		</linearGradient>
		<clipPath clipPathUnits="userSpaceOnUse" id="cp4">
			<path d="m2017.45 3761.88c111.18-55.92 221.45-114.02 330.72-174.25 2.39 0.74-34.49-222.75-193.84-289.7-313.54-127.97-222.04-376.66-216.94-506.39 15.17-185.67-84.65-345-281.37-277.28-219.45 71.58-365.48-212.74-423.14-498.36-16.89-143.33-224.76-249.97-388.03-232.8-167.82 14.34-291.03 152.49-243.58 433.23 38.24 331.05 372.68 418.93 526.89 536.43 151.61 115.28-32.56 318.67 198.3 386.16 196.44 63.09 421.11 78.49 403.2 252.72-20.45 173.25 39.99 287.2 287.79 370.24z"/>
		</clipPath>
		<linearGradient id="g3" x2="1" gradientUnits="userSpaceOnUse" gradientTransform="matrix(-1028.774,-877.591,931.198,-1091.615,2613.477,2799.244)">
			<stop offset="0" stop-color="#444b8c"/>
			<stop offset=".996" stop-color="#26264f"/>
		</linearGradient>
		<linearGradient id="g4" x2="1" gradientUnits="userSpaceOnUse" gradientTransform="matrix(142.395,-3827.917,2093.591,77.88,1763.031,3123.331)">
			<stop offset="0" stop-color="#444b8c"/>
			<stop offset=".996" stop-color="#26264f"/>
		</linearGradient>
		<linearGradient id="g5" x2="1" gradientUnits="userSpaceOnUse" gradientTransform="matrix(-205.698,4538.21,-2538.282,-115.05,1860.289,868.767)">
			<stop offset="0" stop-color="#aa80f9"/>
			<stop offset=".996" stop-color="#6165d7"/>
		</linearGradient>
		<linearGradient id="g6" x2="1" gradientUnits="userSpaceOnUse" gradientTransform="matrix(-203.124,4481.415,-2538.272,-115.049,1858.962,898.035)">
			<stop offset="0" stop-color="#aa80f9"/>
			<stop offset=".996" stop-color="#6165d7"/>
		</linearGradient>
		<linearGradient id="g7" x2="1" gradientUnits="userSpaceOnUse" gradientTransform="matrix(2305.786,-2961.347,2840.409,2211.62,1906.401,1607.59)">
			<stop offset="0" stop-color="#ab316d"/>
			<stop offset="1" stop-color="#792d3d"/>
		</linearGradient>
		<linearGradient id="g8" x2="1" gradientUnits="userSpaceOnUse" gradientTransform="matrix(417.661,-536.407,559.006,435.258,2125.067,1335.484)">
			<stop offset="0" stop-color="#fcb148"/>
			<stop offset=".052" stop-color="#fdba46"/>
			<stop offset=".142" stop-color="#ffc244"/>
			<stop offset=".318" stop-color="#ffc444"/>
			<stop offset=".485" stop-color="#fdb946"/>
			<stop offset=".775" stop-color="#f99c4d"/>
			<stop offset=".866" stop-color="#f8924f"/>
			<stop offset="1" stop-color="#f8924f"/>
		</linearGradient>
		<linearGradient id="g9" x2="1" gradientUnits="userSpaceOnUse" gradientTransform="matrix(-270.364,-687.665,685.355,-269.456,2580.529,1148.736)">
			<stop offset="0" stop-color="#fcb148"/>
			<stop offset=".052" stop-color="#fdba46"/>
			<stop offset=".142" stop-color="#ffc244"/>
			<stop offset=".318" stop-color="#ffc444"/>
			<stop offset=".485" stop-color="#fdb946"/>
			<stop offset=".775" stop-color="#f99c4d"/>
			<stop offset=".866" stop-color="#f8924f"/>
			<stop offset="1" stop-color="#f8924f"/>
		</linearGradient>
		<linearGradient id="g10" x2="1" gradientUnits="userSpaceOnUse" gradientTransform="matrix(585.375,-751.804,451.26,351.363,2161.233,1395.866)">
			<stop offset="0" stop-color="#fcb148"/>
			<stop offset=".052" stop-color="#fdba46"/>
			<stop offset=".142" stop-color="#ffc244"/>
			<stop offset=".318" stop-color="#ffc444"/>
			<stop offset=".485" stop-color="#fdb946"/>
			<stop offset=".775" stop-color="#f99c4d"/>
			<stop offset=".866" stop-color="#f8924f"/>
			<stop offset="1" stop-color="#f8924f"/>
		</linearGradient>
		<linearGradient id="g11" x2="1" gradientUnits="userSpaceOnUse" gradientTransform="matrix(421.437,-397.401,385.486,408.801,-2053.002,7064.244)">
			<stop offset="0" stop-color="#311944"/>
			<stop offset="1" stop-color="#893976"/>
		</linearGradient>
		<linearGradient id="g12" x2="1" gradientUnits="userSpaceOnUse" gradientTransform="matrix(337.712,-306.464,297.484,327.816,2588.653,2680.224)">
			<stop offset="0" stop-color="#ff9085"/>
			<stop offset="1" stop-color="#fb6fbb"/>
		</linearGradient>
		<linearGradient id="g13" x2="1" gradientUnits="userSpaceOnUse" gradientTransform="matrix(-628.753,592.892,-603.723,-640.239,1867.419,459.247)">
			<stop offset="0" stop-color="#311944"/>
			<stop offset="1" stop-color="#893976"/>
		</linearGradient>
		<linearGradient id="g14" x2="1" gradientUnits="userSpaceOnUse" gradientTransform="matrix(201.45,311.717,-308.154,199.147,1635.326,475.229)">
			<stop offset="0" stop-color="#ff9085"/>
			<stop offset="1" stop-color="#fb6fbb"/>
		</linearGradient>
		<linearGradient id="g15" x2="1" gradientUnits="userSpaceOnUse" gradientTransform="matrix(511.961,-482.762,468.289,496.613,-2942.018,7168.844)">
			<stop offset="0" stop-color="#444b8c"/>
			<stop offset=".996" stop-color="#26264f"/>
		</linearGradient>
		<linearGradient id="g16" x2="1" gradientUnits="userSpaceOnUse" gradientTransform="matrix(410.252,-372.292,361.384,398.231,2696.656,1843.146)">
			<stop offset="0" stop-color="#aa80f9"/>
			<stop offset=".996" stop-color="#6165d7"/>
		</linearGradient>
		<linearGradient id="g17" x2="1" gradientUnits="userSpaceOnUse" gradientTransform="matrix(968.763,0,0,705.72,1351.113,1809.952)">
			<stop offset="0" stop-color="#444b8c"/>
			<stop offset=".996" stop-color="#26264f"/>
		</linearGradient>
		<linearGradient id="g18" x2="1" gradientUnits="userSpaceOnUse" gradientTransform="matrix(650.393,0,0,611.795,1514.968,2520.985)">
			<stop offset="0" stop-color="#444b8c"/>
			<stop offset=".996" stop-color="#26264f"/>
		</linearGradient>
		<linearGradient id="g19" x2="1" gradientUnits="userSpaceOnUse" gradientTransform="matrix(631.753,0,0,211.713,1547.138,1801.294)">
			<stop offset="0" stop-color="#444b8c"/>
			<stop offset=".996" stop-color="#26264f"/>
		</linearGradient>
		<linearGradient id="g20" x2="1" gradientUnits="userSpaceOnUse" gradientTransform="matrix(55.756,0,0,234.537,1382.476,1801.749)">
			<stop offset="0" stop-color="#444b8c"/>
			<stop offset=".996" stop-color="#26264f"/>
		</linearGradient>
		<linearGradient id="g21" x2="1" gradientUnits="userSpaceOnUse" gradientTransform="matrix(56.199,0,0,228.138,2270.579,1800.156)">
			<stop offset="0" stop-color="#444b8c"/>
			<stop offset=".996" stop-color="#26264f"/>
		</linearGradient>
		<linearGradient id="g22" x2="1" gradientUnits="userSpaceOnUse" gradientTransform="matrix(-416.227,-260.98,276.332,-440.71,1564.472,3124.905)">
			<stop offset="0" stop-color="#311944"/>
			<stop offset="1" stop-color="#893976"/>
		</linearGradient>
		<linearGradient id="g23" x2="1" gradientUnits="userSpaceOnUse" gradientTransform="matrix(93.171,45.324,-100.949,207.518,1052.888,2821.783)">
			<stop offset="0" stop-color="#311944"/>
			<stop offset="1" stop-color="#893976"/>
		</linearGradient>
		<linearGradient id="g24" x2="1" gradientUnits="userSpaceOnUse" gradientTransform="matrix(435.582,633.399,-609.13,418.892,1039.789,2677.51)">
			<stop offset="0" stop-color="#ff9085"/>
			<stop offset="1" stop-color="#fb6fbb"/>
		</linearGradient>
		<linearGradient id="g25" x2="1" gradientUnits="userSpaceOnUse" gradientTransform="matrix(699.421,-191.877,184.305,671.819,509.432,1580.886)">
			<stop offset="0" stop-color="#444b8c"/>
			<stop offset=".996" stop-color="#26264f"/>
		</linearGradient>
		<linearGradient id="g26" x2="1" gradientUnits="userSpaceOnUse" gradientTransform="matrix(699.421,-191.877,184.305,671.819,518.411,1570.96)">
			<stop offset="0" stop-color="#aa80f9"/>
			<stop offset=".996" stop-color="#6165d7"/>
		</linearGradient>
	</defs>
	<style>
		.s0 { fill: #f4f7fa } 
		.s1 { fill: url(#g1) } 
		.s2 { fill: #fcfdfe } 
		.s3 { fill: #d8dee8 } 
		.s4 { fill: url(#g2) } 
		.s5 { fill: #beb8f2 } 
		.s6 { fill: url(#g3) } 
		.s7 { fill: url(#g4) } 
		.s8 { fill: url(#g5) } 
		.s9 { fill: #de8bdf } 
		.s10 { opacity: .3;fill: url(#g6) } 
		.s11 { fill: url(#g7) } 
		.s12 { fill: url(#g8) } 
		.s13 { fill: url(#g9) } 
		.s14 { fill: url(#g10) } 
		.s15 { fill: #ffffff } 
		.s16 { fill: url(#g11) } 
		.s17 { fill: url(#g12) } 
		.s18 { opacity: .5;fill: #ffffff } 
		.s19 { fill: url(#g13) } 
		.s20 { fill: url(#g14) } 
		.s21 { fill: url(#g15) } 
		.s22 { fill: url(#g16) } 
		.s23 { opacity: .3;fill: url(#g17) } 
		.s24 { opacity: .3;fill: url(#g18) } 
		.s25 { fill: url(#g19) } 
		.s26 { fill: url(#g20) } 
		.s27 { fill: url(#g21) } 
		.s28 { opacity: .3;fill: #d8dee8 } 
		.s29 { fill: url(#g22) } 
		.s30 { fill: url(#g23) } 
		.s31 { fill: url(#g24) } 
		.s32 { fill: url(#g25) } 
		.s33 { fill: url(#g26) } 
		.s34 { opacity: .3;fill: #ffffff } 
	</style>
	<g id="Illustration">
		<g id="Layer">
			<path id="Layer" class="s0" d="m1887.4 470.7c-721.6-21.3-1346.6 502.2-1441 1189.2-103.3 751.1 465 1426.9 1164.2 1535.2 869.6 134.6 1713.2-644.3 1637.4-1489.2-57-636.6-627.2-1213.5-1360.6-1235.2z"/>
			<g id="Layer">
				<g id="Layer">
					<g id="Layer">
						<g id="Layer">
							<g id="Layer">
								<g id="Layer">
									<path id="SVGID_1_" class="s1" d="m1957.1 2634.3c38.6 47.5 75.6 82.1 115.5 126.7-246.4 75.1-470.1 192.6-719.8 269.2 54.6-332.2 158.1-507.6-68.2-825.6-106.2-149.2-359.3-412.3-352.6-598.6 7.7-212.4 156.8-214.4 60.5-366.4-150.5-237.5-127.3-556.2 263.2-579 385.5-22.6 721.6 921.7 619.7 1251.2-30.6 297.8-119.8 474.9 81.7 722.5z"/>
									<g id="Clip-Path" clip-path="url(#cp1)">
										<g id="Layer" style="opacity: .7">
											<g id="Layer">
												<path id="Layer" class="s2" d="m1684.4 2872.6l5.5-0.9c-14.4-93.8-21.6-190-28.5-283l-2.7-35.3c-5.6-74.8-12-141.6-17.7-200.6-3.1-33-6.2-64.3-8.8-94.7-8.2-92.9-13.7-157.9-16.4-190.2l-1.8-21.3c-22.4-254.7-146.6-592.5-213.3-773.9-7.2-19.7-13.6-37.2-19.1-52.3-93.7-259.8-160.2-541.3-197.4-836.8l-5.6 0.7c37.4 295.9 103.9 577.8 197.8 838 5.5 15.1 11.9 32.6 19.1 52.3 66.6 181.2 190.6 518.5 212.9 772.5l1.8 21.3c2.8 32.3 8.3 97.3 16.5 190.2 2.6 30.4 5.6 61.7 8.8 94.8 5.6 58.9 12 125.7 17.7 200.4l2.7 35.3c6.9 93.1 14.1 189.4 28.5 283.5z"/>
												<path id="Layer" class="s2" d="m1646.7 2401.5l5.5-0.8c-22.8-167.5-117.1-355.2-272.7-542.6-129.6-156.1-298.2-306.5-462.5-412.5l-3 4.6c318.5 205.6 683.7 590.9 732.7 951.3z"/>
												<path id="Layer" class="s2" d="m1407.1 1304.8l4.5-3.1c-83-120.4-181.8-230.9-277.3-337.8-65.3-73.2-132.9-148.8-194.9-227l-4.3 3.5c62.1 78.3 129.7 154 195.1 227.2 95.4 106.8 194 217.2 276.9 337.2z"/>
												<path id="Layer" class="s2" d="m1558.2 1752.8c8.2-203.1 111.3-471.3 220.6-574l-3.8-4c-110.2 103.5-214.1 373.5-222.4 577.8z"/>
											</g>
										</g>
									</g>
								</g>
							</g>
							<g id="Layer">
								<path id="Layer" class="s3" d="m2254.9 1880.6c15.7 292.1-159.9 273.9-385.2 260.5 103.5 252 195 501.1 287 754.3 150.8 6.7 259 8.7 296.2-170.8 42-203.1 59.5-321.7 264.6-422.2 205.1-100.5 328-302.2 201.4-492.2-133.1-200-17.3-535.3-242.9-647.6-393.1-195.7-437.5 413.9-421.1 718z"/>
								<g id="Layer">
									<path id="SVGID_00000182508369943334431020000003002222504910653864_" class="s3" d="m2254.9 1880.6c15.7 292.1-159.9 273.9-385.2 260.5 103.5 252 195 501.1 287 754.3 150.8 6.7 259 8.7 296.2-170.8 42-203.1 59.5-321.7 264.6-422.2 205.1-100.5 328-302.2 201.4-492.2-133.1-200-17.3-535.3-242.9-647.6-393.1-195.7-437.5 413.9-421.1 718z"/>
									<g id="Clip-Path" clip-path="url(#cp2)">
										<g id="Layer">
											<g id="Layer">
												<path id="Layer" class="s3" d="m2089.3 2557.9c187.6-160 339.5-298.6 444.8-501.8 100.8-194.4 126-382.3 84.3-628.1-21.7-127.3-22.8-221-22-349.4h-5.2c-0.8 128.6 0.3 222.5 22.1 350.3 41.5 244.6 16.5 431.5-83.8 624.9-104.9 202.3-256.4 340.5-443.6 500.2z"/>
												<path id="Layer" class="s3" d="m2450.2 2831.7l3.1-4.2c-65.5-47.9-131.9-83.5-203-108.7-36.4-12.9-71.7-18.8-113.7-23.8l-0.6 5.1c41.6 5 76.7 10.9 112.6 23.6 70.6 25 136.5 60.4 201.6 108z"/>
												<path id="Layer" class="s3" d="m2462.7 2176.1c141.5-121.1 337.8-192.5 552.7-201.1l-0.2-5.1c-216.1 8.6-413.5 80.5-555.8 202.3z"/>
												<path id="Layer" class="s3" d="m2631.2 1697.7l5.2-0.7c-3.8-27.5-111.9-268.7-144.9-342-68.4-151.7-144-314-152.2-323.2l-3.9 3.4c6.8 7.7 76.1 155.1 151.3 321.9 68 150.7 141.6 319.3 144.5 340.6z"/>
											</g>
										</g>
									</g>
								</g>
							</g>
						</g>
					</g>
				</g>
				<g id="Layer">
					<g id="Clip-Path" clip-path="url(#cp3)">
						<g id="Layer">
							<g id="Layer">
								<g id="Layer">
									<path id="SVGID_00000111902094156544176420000009119171673623589306_" class="s4" d="m2017.4 3761.9c111.2-55.9 221.5-114 330.8-174.3 2.4 0.8-34.5-222.7-193.9-289.7-313.5-127.9-222-376.6-216.9-506.4 15.2-185.6-84.7-345-281.4-277.2-219.4 71.5-365.5-212.8-423.1-498.4-16.9-143.3-224.8-250-388.1-232.8-167.8 14.3-291 152.5-243.5 433.2 38.2 331.1 372.6 419 526.9 536.5 151.6 115.2-32.6 318.6 198.3 386.1 196.4 63.1 421.1 78.5 403.2 252.7-20.5 173.3 40 287.2 287.7 370.3z"/>
									<g id="Clip-Path" clip-path="url(#cp4)">
										<g id="Layer">
											<path id="Layer" class="s5" d="m2183.2 3716.4c-0.6-1.9-269.5-403.5-614.8-764.6-51.2-60-105.1-119.9-157.1-177.7-289.8-322.3-563.6-626.8-547.9-1080.2l-7.3 0.5c-15.8 455.6 258.7 760.8 549.2 1083.9 52.1 57.9 105.9 117.7 157.2 177.8 347.1 363 612.5 760.4 613.8 762.9z"/>
											<path id="Layer" class="s5" d="m1145.2 2474.5l3.8-5.8c-172.2-73-389.3-186.8-505.9-247.9-94.4-49.5-94.7-49.3-98.1-47.6l1.6 2.7-0.8 3.1c4.6 1 43.6 21.4 93 47.3 116.7 61.2 333.9 175 506.4 248.2z"/>
											<path id="Layer" class="s5" d="m1049.3 2323.4c-22.1-146 13.3-260 46.9-329.9 36.5-76.2 80.7-121.1 86.9-124.4l-1.3-2 1.4-4c-2.1-0.3-4 0.8-6.6 3-38.3 31.7-173.4 202.2-134.6 458.8z"/>
											<path id="Layer" class="s5" d="m1776.1 3194.9l6.7-3.2c-136.5-258.7-4.4-593.3 58.8-725.1 3.4-7.1 4.4-9.4 4.7-10.5l-7.1-0.7 3.6 0.3-3.5-0.3c-0.3 0.7-2.2 4.7-4.4 9.4-45.6 95.1-78.7 189.7-98.5 281.3-38 175.9-24.6 326.9 39.7 448.8z"/>
											<path id="Layer" fill-rule="evenodd" class="s5" d="m1175.7 3037l-1.3-2.8-0.1 3.1-3.4-2 1.6-3.6q0 0 0 0c4.7-2.2 302.5-93.9 508.4 42.9l-4.8 5.2c-203.9-135.4-497.7-43.9-500.4-42.8zm-1.3-2.8l0.1-3.2z"/>
											<path id="Layer" class="s5" d="m2138 3651.2c-22.2-54.4-32.1-157.4 47.1-338.5 4.5-10.3 4.5-10.3 3.7-11.7l-6.6 3.4 3.3-1.7-3.5-0.1c-0.3 0.8-1.8 4.4-3.6 8.5-80.1 183-69.9 287.4-47.3 342.8z"/>
											<path id="Layer" class="s5" d="m2064.3 3560.2l6.2-4c-69.8-86.4-261.5-99.1-369.6-98.9-3.4 0-5.6 0-6.4-0.1l-1.4 6.4c0.9 0 3.3 0 7 0 106.8-0.1 296.1 12.2 364.2 96.6z"/>
										</g>
									</g>
								</g>
							</g>
						</g>
					</g>
				</g>
			</g>
			<g id="Layer">
				<path id="Layer" class="s6" d="m2378.7 967v2135.2c0 31.9-27.3 39.7-58.3 41.7l-1079.2 91.5-16.6 1.1c-34.1 2.3-62.1-23.4-62.1-57v-2248.5c0-33.6 28-60.2 62.1-59.2l22.5 0.8 1083 82.8c30.9 1 48.6-20.3 48.6 11.6z"/>
				<path id="Layer" class="s7" d="m2411.7 967v2134.1c0 31.9-25.2 59.7-56.2 61.8l-1096.8 72.5c-34.1 2.2-62-23.4-62-57v-2247.4c0-33.6 27.9-60.2 62-59.1l1096.8 35.2c31 1 56.2 28 56.2 59.9z"/>
				<path id="Layer" class="s8" d="m2377.3 1084.4v1978c0 29.8-23.9 55.7-52.8 57.6l-1031.4 66.2c-31.7 2-57.8-22-57.8-53.3v-2076.4c0-20.8 11.4-38.7 28.4-48.2 8.6-4.8 18.6-7.5 29.3-7.2l1031.5 27.7c28.9 0.8 52.8 25.8 52.8 55.6z"/>
				<path id="Layer" class="s9" d="m1840.3 956.6c0 11.3-9.1 20.3-20.4 20-11.2-0.4-20.4-9.8-20.4-21.2 0-11.4 9.2-20.3 20.4-19.9 11.3 0.3 20.4 9.8 20.4 21.1z"/>
				<path id="Layer" class="s10" d="m2377.3 2911.1v151.3c0 29.8-23.9 55.7-52.8 57.6l-1031.4 66.2c-31.7 2-57.8-22-57.8-53.3v-2076.4c0-20.8 11.4-38.7 28.4-48.2 85.2 28 334 161.8 353.9 772.9 19.5 598.6 629.6 731.6 759.7 1129.9z"/>
			</g>
			<g id="Layer">
				<g id="Layer">
					<path id="Layer" class="s11" d="m2734.3 604.3l-534.1-32.7c-39.2-2.1-71.1 28.6-71.1 68.4v498.9c0 39.9 31.9 72.5 71.1 72.9l29.7 0.2v122.9c0 18.4 21.9 27.4 39.9 7l111.7-128.4 352.8 1c33 0.3 59.6-28.8 59.6-65.2v-476.2c0-36.3-26.6-67.1-59.6-68.8z"/>
					<path id="Layer" class="s12" d="m2751.2 1201.5l-534-2.8c-39.3-0.3-71.2-32.9-71.2-72.8v-498.9c0-39.8 31.9-70.5 71.2-68.4l534 32.7c33 1.7 59.6 32.5 59.6 68.8v476.2c0 36.4-26.6 65.5-59.6 65.2z"/>
					<path id="Layer" class="s13" d="m2166.3 1139.3v-524.4c0-21.3 17-37.6 37.9-36.5l557.9 32.2c17.6 0.9 31.8 17.4 31.8 36.7v500.8c0 19.4-14.2 34.9-31.8 34.7l-557.9-4.6c-20.9-0.3-37.9-17.6-37.9-38.9z"/>
					<path id="Layer" class="s14" d="m2246.9 1321.9v-148.1l173.1 1.9-138.8 159.5c-12 13.7-34.3 5.1-34.3-13.3z"/>
				</g>
				<g id="Layer">
					<g id="Layer">
						<path id="Layer" class="s15" d="m2389.1 886.7c0 22.3-18.7 39.9-41.9 39.4-23.3-0.5-42.2-19.1-42.2-41.5 0-22.4 18.9-40 42.2-39.4 23.2 0.7 41.9 19.3 41.9 41.5z"/>
						<path id="Layer" class="s15" d="m2530.3 890.4c0 22-18.3 39.4-41 38.9-22.7-0.5-41.2-18.9-41.2-41 0-22.2 18.5-39.6 41.2-39 22.7 0.7 41 19.1 41 41.1z"/>
						<path id="Layer" class="s15" d="m2668.2 893.9c0 21.7-17.9 39-40 38.5-22.2-0.5-40.3-18.7-40.3-40.6 0-21.9 18.1-39.1 40.3-38.4 22.1 0.6 40 18.7 40 40.5z"/>
					</g>
				</g>
			</g>
			<g id="Layer">
				<g id="Layer">
					<path id="Layer" class="s16" d="m2513.4 2577.6c0-105.5 92.1-191 202.5-191 107.2 0 191.7 81 191.7 180.9 0 99.9-84.5 185.2-191.7 190.7-110.4 5.7-202.5-75.1-202.5-180.6z"/>
				</g>
				<g id="Layer">
					<path id="Layer" class="s17" d="m2525.3 2569.1c0-105.4 89.4-191 196.6-190.9 104.1 0 186.2 81 186.2 180.9 0 99.9-82.1 185.2-186.2 190.7-107.2 5.7-196.6-75.2-196.6-180.7z"/>
				</g>
				<g id="Layer" style="opacity: .5">
					<path id="Layer" class="s15" d="m2555.9 2568.3c0-88.6 75.1-160.4 165.2-160.4 87.4 0 156.4 68.1 156.4 152 0 83.9-69 155.6-156.4 160.2-90.1 4.8-165.2-63.1-165.2-151.8z"/>
				</g>
				<path id="Layer" class="s18" d="m2714.9 2421.5c87.4 0 156.4 68.1 156.4 152 0 20-3.9 39.2-11 57.1 11-21.5 17.2-45.6 17.2-70.7 0-83.9-69-152-156.4-152-69.5 0-130 42.7-154.1 102.9 27.3-52.9 83.8-89.3 147.9-89.3z"/>
				<g id="Layer">
					<path id="Layer" fill-rule="evenodd" class="s15" d="m2630 2641.1c-5.5 0-10.5-2-14.3-5.7-3.9-3.7-6-8.7-6-14.1v-109.1c0-11.1 9.3-20.3 20.8-20.5l180.4-3c5.5 0 10.5 1.9 14.4 5.7 3.7 3.7 5.8 8.6 5.8 13.9v105.9c0 10.9-8.9 20-19.9 20.4l-180.4 6.5q-0.4 0-0.8 0zm181.1-140.4l-180.4 3c-5 0.1-9 3.9-9 8.5v109.1c0 2.1 0.8 4 2.3 5.4 1.6 1.6 3.9 2.4 6.3 2.4l180.5-6.5c4.6-0.2 8.3-3.9 8.3-8.4v-105.9c0-2-0.8-3.9-2.3-5.3-1.5-1.5-3.5-2.3-5.7-2.3z"/>
					<path id="Layer" class="s15" d="m2721.4 2573.5c-5.4 0-10.8-1.8-15.2-5.4l-80.4-65.7c-2.6-2.1-3-5.9-0.9-8.5 2.1-2.6 5.9-2.9 8.5-0.8l80.4 65.7c4.6 3.8 11.4 3.6 16.1-0.5l78.1-68.1c2.5-2.2 6.3-2 8.5 0.5 2.1 2.5 1.9 6.3-0.6 8.5l-78.1 68.1c-4.7 4.2-10.5 6.2-16.4 6.2z"/>
				</g>
			</g>
			<g id="Layer">
				<g id="Layer">
					<path id="Layer" class="s19" d="m1810.3 512.6c55.8 57.2 55.8 147.3 0 202.4-56.4 55.7-149.3 55.4-207.4-1.8-58.7-57.9-58.7-150.9 0-206.5 58.1-55.1 151-51.9 207.4 5.9z"/>
				</g>
				<g id="Layer">
					<path id="Layer" class="s20" d="m1820.4 500.4c55.9 57.1 55.9 147.3 0 202.4-56.4 55.7-149.2 55.4-207.3-1.9-58.8-57.8-58.8-150.8 0-206.5 58.1-55 150.9-51.9 207.3 6z"/>
				</g>
				<g id="Layer" style="opacity: .5">
					<path id="Layer" class="s15" d="m1800.1 519.6c45 46.1 45 118.8 0 163.2-45.5 44.9-120.3 44.6-167.1-1.5-47.4-46.7-47.4-121.6 0-166.5 46.8-44.3 121.6-41.8 167.1 4.8z"/>
				</g>
				<path id="Layer" class="s18" d="m1800.1 519.6c-45.5-46.6-120.3-49.1-167.1-4.8-0.4 0.5-0.8 0.9-1.3 1.3 46.6-30.5 110.4-23.9 150.9 17.6 45 46.1 45 118.7 0 163.1q-0.2 0.2-0.4 0.4c6.4-4.1 12.4-9 17.9-14.4 45-44.4 45-117.1 0-163.2z"/>
				<g id="Layer">
					<path id="Layer" class="s15" d="m1765.3 666.2l21.8 0.3v-119.8l-21.8-0.5z"/>
					<path id="Layer" class="s15" d="m1726.4 665.8l21.9 0.2v-60.1l-21.9-0.4z"/>
					<path id="Layer" class="s15" d="m1687.1 665.3l22.1 0.3v-132.2l-22.1-0.5z"/>
					<path id="Layer" class="s15" d="m1647.6 664.8l22.2 0.3v-113l-22.2-0.5z"/>
				</g>
			</g>
			<g id="Layer">
				<g id="Layer">
					<g id="Layer">
						<path id="Layer" class="s21" d="m2605.3 1718.4c0-128.1 111.8-232 245.9-232 130.2 0 233 98.4 233 219.8 0 121.4-102.8 225-233 231.7-134.1 6.9-245.9-91.3-245.9-219.5z"/>
					</g>
					<g id="Layer">
						<path id="Layer" class="s22" d="m2619.7 1708.2c0-128.1 108.6-232 238.9-232 126.4 0 226.2 98.4 226.2 219.8 0 121.4-99.8 225-226.2 231.7-130.3 6.8-238.9-91.3-238.9-219.5z"/>
					</g>
					<g id="Layer" style="opacity: .5">
						<path id="Layer" class="s15" d="m2656.9 1707.2c0-107.6 91.2-194.9 200.7-194.9 106.2 0 190 82.7 190 184.7 0 101.9-83.8 189-190 194.6-109.5 5.8-200.7-76.7-200.7-184.4z"/>
					</g>
					<path id="Layer" class="s18" d="m2850 1528.9c106.2 0 190.1 82.6 190.1 184.6 0 24.3-4.8 47.6-13.5 69.3 13.4-26.1 21-55.3 21-85.8 0-102-83.8-184.7-190-184.7-84.5 0-158 51.9-187.2 125.1 33.1-64.3 101.7-108.6 179.6-108.5z"/>
				</g>
				<g id="Layer">
					<path id="Layer" class="s15" d="m2823.7 1747.9v-13.7q0-17.7 7.6-30.8 7.6-13.2 27.7-27.9 19.4-13.9 25.6-22.6 6.2-8.7 6.2-19.4 0-12-8.9-18.3-8.9-6.3-24.7-6.3-27.8 0-63.2 18.1l-20.2-40.4q41.2-23.1 87.4-23.1 38.1 0 60.5 18.3 22.5 18.3 22.5 48.8 0 20.3-9.3 35.1-9.2 14.7-35.1 33.2-17.7 13.1-22.4 20-4.7 6.8-4.7 17.9v11.1c0 0-49 0-49 0zm-5.9 63.2q0-15.5 8.3-23.5 8.3-7.9 24.2-7.9 15.4 0 23.8 8.1 8.4 8.1 8.4 23.3 0 14.6-8.5 23-8.5 8.4-23.7 8.4-15.5 0-24-8.2-8.5-8.3-8.5-23.2z"/>
				</g>
			</g>
			<g id="Layer">
				<path id="Layer" class="s23" d="m2291 1706.1c-6.2 0-12.1 3.3-16.8 8.9 0 0 0 0 0 0-52.3-146.8-224.3-256-430.8-257.9-42-0.4-82.8 3.7-121.5 11.7q-0.1 0-0.2 0 0 0 0 0c-154.2 31.6-277.1 125-320.9 244.8-5-5.7-11.7-9.1-18.3-9.1-16.8-0.1-31.4 21.8-31.4 48.9v142.2c0 27.1 13.9 48.9 30.7 48.8 0.1 0 0.4 0 0.5 0 0.2 0 0.4 0 0.5 0 10-0.1 19.5-8 25-20 61.8 141.1 234.4 240.8 435.6 238.4 56.3-0.7 110-9.3 159.4-24.6 125-38.3 222.6-118.6 264.9-218q0 0 0 0c5.2 11.7 13.8 19.3 23.3 19.3 15.8-0.1 28.9-21.5 28.9-47.7v-138.1c0-26.2-13-47.6-28.9-47.6z"/>
				<path id="Layer" class="s24" d="m1976.9 2215.1l-268.1 3.7c-34.2 0.5-67.4 10.2-96.4 27.4-22.9 13.7-43.2 32-59.4 54.4-36.8 50.7-47.6 115.6-29.3 174.7 0.4 1.2 0.8 2.4 1.1 3.6l7 22.6c14.2 45.6 28.4 91.2 42.5 136.7 36.1 116.2 142.8 192.4 263.3 188.5 38-1.2 74.6-9.9 108.2-24.8 78-34.7 139.8-102.7 165.6-188.7 12.6-41.9 25.2-83.7 37.7-125.5l6.8-22.4c0.3-1.2 0.7-2.5 1.1-3.6 17.6-58.7 7.1-121.9-28.2-170.5-35.5-48.6-91.8-76.9-151.9-76.1z"/>
			</g>
			<g id="Layer">
				<g id="Layer">
					<path id="Layer" class="s15" d="m2298.4 1787c0 37.8-7.8 74.3-22.3 108.4-41.3 97.2-136.7 175.6-258.9 213.1-48.3 14.9-100.9 23.4-155.9 24-196.6 2.4-365.4-95.1-425.8-233-15.3-35-23.6-72.4-23.6-111.3 0-32.8 5.9-64.6 17-94.8 42.8-117.1 162.8-208.4 313.6-239.4 37.9-7.8 77.7-11.7 118.8-11.4 201.8 1.9 370 108.7 421.1 252.1 10.4 29.4 16 60.3 16 92.3z"/>
					<path id="Layer" class="s3" d="m2066.4 1972.2l-398.6 2.9c-81.7 0.6-148.1-65.8-148.1-148.4v-87.2c0-37.3 30-67.5 67-67.4l558.3 1.2c35.7 0.1 64.6 29.8 64.6 66.2v85.5c0 80.7-64 146.7-143.2 147.2z"/>
					<path id="Layer" class="s3" d="m1889.7 2046.3l-56.8 0.5c-78.8 0.8-142.9-63.5-142.9-143.5 0-80.1 64.1-145 142.9-145h56.8c78.1-0.1 141.1 64.1 141.1 143.3 0 79.2-63 143.9-141.1 144.7z"/>
					<path id="Layer" class="s25" d="m2077 1905l-424.6 2.2c-58 0.2-105.3-47-105.3-105.7v-38.7c0-37.3 30.1-67.4 67-67.4l500.1 0.8c35.8 0 64.7 29.7 64.7 66.2v38c0 57.5-45.5 104.3-101.9 104.6z"/>
					<path id="Layer" class="s3" d="m1777.5 1813.3c4.1-5.9 6.6-12.5 6.6-19.6 0-23-24.1-41.7-53.9-41.7-29.9 0-54.2 18.8-54.2 41.9 0 7.1 2.6 13.7 6.6 19.6z"/>
					<path id="Layer" class="s3" d="m2046.7 1812.7c4-5.8 6.4-12.4 6.4-19.4 0-22.9-23.7-41.4-53-41.4-29.4 0-53.2 18.6-53.2 41.5 0 7.1 2.4 13.7 6.5 19.5z"/>
					<path id="Layer" class="s26" d="m1438.2 1732.3v138.8c0 10.6-0.6 20.4-4.2 28.4-5.4 11.8-13 19.5-22.8 19.5-16.5 0.1-28.7-21.2-28.7-47.7v-139c0-26.4 13-47.9 29.4-47.8 6.5 0 12.2 3.3 17.1 8.9 1.3 1.6 1 3.3 2.2 5.1 5.3 8.7 7 20.6 7 33.8z"/>
					<path id="Layer" class="s27" d="m2298.7 1914.2c-15.5 0.1-28.1-20.7-28.1-46.4v-135.2c0-25.7 12.6-46.5 28.1-46.5 15.5 0 28.1 20.8 28.1 46.5v135c0 25.7-12.6 46.5-28.1 46.6z"/>
				</g>
				<path id="Layer" class="s15" d="m2167.9 2424.7c-0.4 1.2-0.8 2.4-1.1 3.6l-6.6 21.9c-12.3 40.9-24.6 81.7-36.9 122.7-25.2 84-85.7 150.6-161.9 184.4-32.8 14.6-68.6 23.1-105.8 24.3-117.8 3.8-222.1-70.7-257.4-184.3-13.8-44.5-27.6-89-41.5-133.7l-6.8-22c-0.4-1.2-0.8-2.4-1.1-3.6-17.9-57.8-7.3-121.2 28.6-170.7 15.8-21.9 35.7-39.9 58.1-53.2 28.3-16.9 60.8-26.3 94.2-26.8l262.1-3.6c58.8-0.8 113.8 26.8 148.5 74.4 34.6 47.5 44.8 109.3 27.6 166.6z"/>
				<path id="Layer" class="s3" d="m2166.8 2428.3l-6.6 21.9-603.5 13.4-6.8-22z"/>
				<path id="Layer" class="s28" d="m1893 2046.2c39.1 25.5 81.5 46.3 124.2 62.3-48.3 14.9-100.9 23.4-155.9 24-196.6 2.4-365.4-95.1-425.8-233-5.4 11.8-13.8 19.5-23.6 19.5-16.4 0.1-29.4-21.2-29.4-47.7v-139c0-26.4 13-47.8 29.4-47.8 6.5 0 12.2 3.3 17.1 8.9 42.9-117.1 162.7-208.4 313.5-239.4 14.3 50.9 13.9 114.3-12.3 192.9-2.9 8.6-5.4 17.1-7.6 25.5q-3 11.7-5.2 23.2c-3.8 20.3-5.7 39.9-5.7 58.9 0 20.4 1.9 40 5.8 58.9 0.2 1.2 0.4 2.3 0.7 3.5 6.9 32.1 19.1 62 35.4 89.7 14.3 24.3 31.7 46.8 51.5 67.5 25.9 27.1 55.7 51.2 87.9 72.1z"/>
				<path id="Layer" class="s28" d="m1961.4 2757.3c-32.8 14.6-68.6 23.1-105.8 24.3-117.8 3.8-222.1-70.7-257.4-184.3-13.8-44.5-27.6-89-41.5-133.7l-6.8-22c-0.4-1.2-0.8-2.4-1.1-3.6-17.9-57.8-7.3-121.2 28.6-170.7 15.8-21.9 35.7-39.9 58.1-53.2 1.3 65-10.9 138.5 78.9 223.9 7.5 7.2 15.7 14.3 24.6 21.6 22 17.9 48.5 36.2 80.7 55.1 153.9 90.1 192.1 179.3 141.7 242.6z"/>
			</g>
			<g id="Layer">
				<g id="Layer">
					<path id="Layer" fill-rule="evenodd" class="s29" d="m1366.1 3081.5c-10.2 12.7-21.1 24.4-32.7 35 0.8 1.3 1.6 2.7 2.4 4.2 14.6 28.5 5.3 64.5-20.7 80.3-25.9 15.8-58.7 5.5-73.3-23-0.7-1.5-1.4-3-2-4.5-14.4 5.3-29.2 9.3-44.1 12.1 0.1 1.7 0.2 3.4 0.1 5.1-0.3 32.5-24.6 58.4-54.2 57.8-29.5-0.6-53.2-27.4-52.8-59.9 0-1.6 0.1-3.3 0.3-4.9-14.7-3.3-29.2-7.9-43.6-13.7-0.6 1.4-1.3 2.9-2.1 4.4-15 27.8-47.6 36.7-72.9 20.1-25.2-16.7-33.5-52.7-18.5-80.4 0.8-1.5 1.6-2.8 2.5-4.2q-11.5-11-21.6-23.2c-26.4 12-72.1-5.5-85.7-32.3-14.2-28.2-5.2-63.8 20.3-79.6 1.3-0.8 2.6-1.5 4-2.2-4.8-15.7-8.5-31.7-11.1-48-1.4 0.1-3 0.2-4.5 0.2-29.1-0.4-52.4-26.8-52.1-59.1 0.4-32.2 24.3-58.1 53.4-57.8 1.5 0 3 0.2 4.4 0.3 2.9-16.1 7-32 12.2-47.7-1.3-0.8-2.7-1.5-4-2.3-25.1-16.4-33.3-52.2-18.4-80 14.9-27.9 47.3-37.2 72.5-20.9 1.3 0.8 2.5 1.8 3.7 2.7 10-12.7 20.7-24.3 32.1-34.9-0.8-1.4-1.6-2.7-2.3-4.2-14.4-28-5.3-63.8 20.3-79.9 25.6-16.1 58-6.3 72.4 21.8 0.7 1.5 1.4 3 2 4.5 14.3-5.5 28.9-9.7 43.8-12.7-0.1-1.6-0.2-3.3-0.2-5 0.4-32.4 23-59.8 87.5-52.2 29.6 3.5 19.9 20.1 19.6 52.6 0 1.7-0.2 3.4-0.3 5 14.7 3.1 29.4 7.5 43.8 13.2 0.7-1.5 1.4-3 2.1-4.5 15.2-28.1 42-52.2 101.8-15.2 25.8 16.1 6.1 46.5-9.1 74.7-0.8 1.5-1.6 2.9-2.5 4.2 11.6 11.1 22.3 23 32 35.6 1.3-0.9 2.5-1.8 3.9-2.7 26-16.1 59-6.2 73.7 22.2 14.7 28.5 5.4 64.6-20.7 80.7-1.4 0.9-2.8 1.6-4.2 2.3 5 15.8 8.8 32.1 11.4 48.6 1.5-0.2 3.1-0.3 4.7-0.2 29.9 0.3 54 27.1 53.6 59.8-0.3 32.7-24.9 59-54.9 58.6-1.5 0-3.1-0.2-4.6-0.3-2.9 16.3-7.1 32.4-12.4 48.3 1.3 0.7 2.7 1.5 4 2.3 25.8 16.8 34.3 53.1 19 81.2-15.2 28.1-48.5 37.3-74.2 20.5-1.3-0.9-2.6-1.8-3.8-2.8zm-429.4 3.2c1-0.6-9.4-6.5-12.7-9.1q4.3 5.7 8.9 11.1 1.9-0.9 3.8-2zm-12.7-9.1q-0.5-0.6-1-1.3c-0.2 0.2 0.2 0.7 1 1.3zm389.5-96.8c55.2-101.9 24.5-233.4-68.4-293.3-92.5-59.7-211.4-25.5-265.9 75.9-54.3 101.1-24.1 231.6 67.6 291.7 92.1 60.5 211.6 27.4 266.7-74.3z"/>
					<path id="Layer" class="s30" d="m1438.1 2932.3c30 0.4 54.6-25.9 54.9-58.6 0.4-32.7-23.7-59.5-53.6-59.8-1.6-0.1-3.2 0-4.7 0.2-2.6-16.5-6.4-32.8-11.4-48.6 1.4-0.7 2.8-1.4 4.2-2.3 26.1-16.1 59.1-58.2 41.8-85.1-32.8-51-68.8-33.9-94.8-17.8-1.4 0.9-2.6 1.8-3.9 2.7-9.7-12.6-20.4-24.5-32-35.6 0.9-1.3 1.7-2.7 2.5-4.2 8.3-15.3 9.5-33 4.8-48.6-25.9 42.9-51.5 86-76.6 129.3 73.7 65.7 94.3 182.5 44.2 274.9-42.4 78.2-122.9 115.8-199.7 101.5-3.7 9-7.3 18-11.3 26.9-10.7 24.1-22.7 47.4-34.7 70.8q10.6 3.3 21.3 5.7c-0.2 1.6-0.3 3.3-0.3 4.9-0.4 32.5 17.5 62.1 71 65.3 29.6 1.7 35.7-30.7 36-63.2 0.1-1.7 0-3.4-0.1-5.1 14.9-2.8 29.7-6.8 44.1-12.1 0.6 1.5 1.3 3 2 4.5 14.6 28.5 67.5 45.9 93.5 30.1 26-15.8 15.1-58.9 0.5-87.4-0.8-1.5-1.6-2.9-2.4-4.2 11.6-10.6 22.5-22.3 32.7-35 1.2 1 2.5 1.9 3.8 2.8 25.7 16.8 59 7.6 74.2-20.5 15.3-28.1 6.8-64.4-19-81.2-1.3-0.8-2.7-1.6-4-2.3 5.3-15.9 9.5-32 12.4-48.3 1.5 0.1 3 0.3 4.6 0.3z"/>
					<path id="Layer" fill-rule="evenodd" class="s31" d="m1394.1 3087.9c-10.2 12.7-21.2 24.4-32.8 35 0.8 1.4 1.7 2.7 2.4 4.2 14.6 28.6 5.4 64.6-20.6 80.4-26 15.8-58.9 5.5-73.5-23-0.7-1.5-1.4-3-2-4.5-14.4 5.3-29.2 9.3-44.2 12.1 0.1 1.6 0.2 3.3 0.2 5-0.3 32.6-24.7 58.5-54.3 57.9-29.6-0.6-53.2-27.4-52.9-59.9 0.1-1.7 0.2-3.3 0.3-4.9-14.7-3.3-29.2-7.9-43.6-13.8-0.6 1.5-1.3 3-2.1 4.4-15 27.8-47.7 36.8-73 20.1-25.2-16.7-33.5-52.7-18.6-80.4 0.8-1.5 1.7-2.8 2.5-4.2-11.4-11-21.9-23-31.4-35.6-1.3 0.9-2.5 1.8-3.8 2.6-25.5 15.8-57.8 5.6-72.1-22.6-14.3-28.2-5.3-63.8 20.2-79.6 1.3-0.8 2.7-1.5 4.1-2.2-4.8-15.7-8.5-31.7-11.1-48.1-1.5 0.2-3 0.3-4.5 0.2-29.2-0.3-52.6-26.8-52.2-59.1 0.3-32.2 24.3-58.1 53.4-57.8 1.5 0 3 0.1 4.5 0.3 2.9-16.1 6.9-32.1 12.2-47.8-1.4-0.7-2.7-1.4-4-2.3-25.1-16.4-33.4-52.2-18.5-80 14.9-27.9 47.4-37.3 72.6-20.9 1.3 0.8 2.5 1.8 3.7 2.7 10-12.7 20.8-24.3 32.2-34.9-0.8-1.4-1.6-2.7-2.4-4.2-14.3-28.1-5.2-63.9 20.4-79.9 25.6-16.1 58-6.4 72.5 21.8 0.7 1.4 1.4 2.9 2 4.4 14.3-5.4 29-9.7 43.8-12.6-0.1-1.7-0.1-3.4-0.1-5.1 0.3-32.4 24.6-58.7 54.1-58.6 29.6 0.1 53.4 26.6 53 59.1 0 1.7-0.1 3.3-0.2 5 14.7 3 29.4 7.4 43.8 13.2 0.7-1.5 1.4-3 2.2-4.5 15.1-28.1 48.2-37.7 73.9-21.3 25.6 16.5 34.1 52.7 18.9 80.9-0.8 1.4-1.7 2.8-2.6 4.1 11.7 11.1 22.4 23 32.1 35.7 1.3-1 2.5-1.9 3.9-2.7 26-16.2 59.1-6.2 73.8 22.2 14.7 28.5 5.4 64.6-20.7 80.8-1.4 0.8-2.8 1.5-4.2 2.2 4.9 15.9 8.7 32.1 11.4 48.6 1.5-0.1 3.1-0.2 4.6-0.2 30 0.3 54.1 27.2 53.8 59.9-0.4 32.8-25 59-55 58.6-1.6 0-3.1-0.1-4.6-0.3-2.9 16.3-7.1 32.5-12.5 48.4 1.4 0.7 2.8 1.4 4.1 2.3 25.8 16.8 34.3 53.1 19 81.3-15.3 28.1-48.6 37.2-74.3 20.4-1.3-0.8-2.6-1.8-3.8-2.8zm-52.7-102.7c55.3-102 24.5-233.6-68.5-293.6-92.6-59.7-211.7-25.5-266.2 75.9-54.3 101.3-24.2 231.8 67.7 292 92.2 60.5 211.8 27.4 267-74.3z"/>
				</g>
			</g>
			<g id="Layer">
				<g id="Layer">
					<g id="Layer">
						<path id="Layer" class="s32" d="m647.2 1356.9c84.7-73.7 217.7-65.8 297.2 14.2 77.6 78.1 77.6 198.7 0 272.6-79.5 75.7-212.5 76.3-297.2-2-86.8-80.2-86.8-209.3 0-284.8z"/>
					</g>
					<g id="Layer">
						<path id="Layer" class="s33" d="m656.2 1346.9c84.7-73.6 217.7-65.8 297.2 14.2 77.6 78.2 77.6 198.8 0 272.7-79.5 75.7-212.5 76.3-297.2-2-86.8-80.2-86.8-209.4 0-284.9z"/>
					</g>
					<g id="Layer" style="opacity: .5">
						<path id="Layer" class="s15" d="m677.4 1368.4c72.3-62.9 185.9-56.2 253.7 12.1 66.3 66.7 66.3 169.7 0 232.8-67.8 64.5-181.4 65.1-253.7-1.8-74.1-68.5-74.1-178.7 0-243.1z"/>
					</g>
					<path id="Layer" class="s34" d="m668.5 1383.1c72.2-62.9 185.8-56.2 253.7 12.1 53.5 53.8 63.8 131.4 30.8 192.5 43.4-62.9 36.1-148.9-21.9-207.2-67.8-68.3-181.4-75-253.7-12.1-15.5 13.5-27.8 29.1-36.8 45.9 7.7-11.2 16.9-21.7 27.9-31.2z"/>
				</g>
				<g id="Layer">
					<path id="Layer" fill-rule="evenodd" class="s15" d="m908.8 1481.7q0 18.9-6.1 34.6-6 15.8-17.1 24.7-11 8.9-25.6 8.9-9.8 0-17.3-4.6-7.5-4.7-10.8-12.3h-2.1q-14.2 16.9-36.1 16.9-23.3 0-36.7-14-13.5-14-13.5-38.3 0-27.8 17.7-44.7 17.6-17 46-17 11.3 0 24.9 2.2 13.7 2.1 22.5 5.2l-3.1 64.3q0 18.3 10 18.3 8.5 0 13.5-12.3 5-12.3 5-32.2-0.1-21.2-8.9-37.4-8.8-16.2-24.8-24.8-15.9-8.5-36.5-8.5-26.5 0-46.1 10.9-19.6 10.9-30.1 31.5-10.4 20.6-10.4 47.5 0 36.3 19.4 55.7 19.4 19.4 56.2 19.4 13.9 0 30.6-3.1 16.7-3.1 32.9-9v25.3q-28.1 12-62.5 12-49.9 0-77.9-26.4-27.9-26.3-27.9-73.1 0-32.5 14.2-59 14.3-26.5 40.7-41.5 26.3-15.1 60.7-15.1 28.9 0 51.7 11.8 22.7 11.9 35.1 33.7 12.4 21.8 12.4 50.4zm-134.7 16.4q0 27.8 22.6 27.8 11.8 0 18-8.4 6.2-8.3 7.5-27.1l1.7-29.1q-6.7-1.5-15.1-1.5-16.5 0-25.6 10.3-9.1 10.3-9.1 28z"/>
				</g>
			</g>
		</g>
	</g>
</svg>