<svg version="1.2" xmlns="http://www.w3.org/2000/svg" viewBox="0 0 3710 3710" width="3710" height="3710">
	<title>12290914_Wavy_Tech-12_Single-01-svg</title>
	<defs>
		<linearGradient id="g1" x2="1" gradientUnits="userSpaceOnUse" gradientTransform="matrix(1068.403,0,0,1539.914,579.445,2224.55)">
			<stop offset=".004" stop-color="#e38ddd"/>
			<stop offset="1" stop-color="#9571f6"/>
		</linearGradient>
		<clipPath clipPathUnits="userSpaceOnUse" id="cp1">
			<path d="m1477.32 2913.7c190.31-147.06 210.17-451.65 114.61-531.35-49.7-41.46-110.06-4.92-155.63-54.97-50.48-55.45-1.34-127.71-12.9-283.61-5.97-80.55-16.81-226.62-103.3-276.4-85.78-49.36-160.44 45.19-255.67-2.82-90.04-45.4-57.5-147.19-168.32-238.13-10.31-8.46-127.44-102.24-218.38-61.71-92.4 41.17-125.13 206.42-74.54 308.96 45.96 93.16 147.18 107.18 142.51 162.61-5.15 61.08-129.76 64.06-141.07 126.31-16.35 89.97 232.07 149.36 240.75 290.81 5.11 83.17-78.5 99.92-94.92 205.44-21.2 136.19 92.05 275.5 189.43 344.22 141.13 99.59 372.48 138.11 537.43 10.64z"/>
		</clipPath>
		<linearGradient id="g2" x2="1" gradientUnits="userSpaceOnUse" gradientTransform="matrix(-464.332,2043.053,-1042.764,-236.993,2668.505,1723.472)">
			<stop offset=".004" stop-color="#e38ddd"/>
			<stop offset="1" stop-color="#9571f6"/>
		</linearGradient>
		<clipPath clipPathUnits="userSpaceOnUse" id="cp2">
			<path d="m2338.53 2825.94c-240.35-118.84-329.09-447.35-242.2-555.48 45.2-56.24 119.21-29.59 157.99-94.32 42.96-71.71-26.65-139.87-48.32-312.8-11.2-89.34-31.51-251.36 52.06-324.8 82.88-72.82 185.29 14.07 278.79-59.35 88.42-69.43 30.45-173.52 131.55-297.3 9.4-11.51 116.77-139.78 225.08-115.51 110.04 24.66 182.18 198.06 149.46 321.25-29.72 111.93-137.26 149.53-119.96 209.08 19.07 65.63 155.91 41.46 181.97 107 37.68 94.72-220.74 214.31-199.1 370.8 12.72 92.03 130.52 99.67 113.05 217.43-28.15 189.83-66.02 235.34-157.33 331.87-132.31 139.91-314.71 305.13-523.04 202.13z"/>
		</clipPath>
		<linearGradient id="g3" x2="1" gradientUnits="userSpaceOnUse" gradientTransform="matrix(1449.803,1597.598,-1585.235,1438.584,1057.436,1169.767)">
			<stop offset=".004" stop-color="#26264f"/>
			<stop offset="1" stop-color="#444b8c"/>
		</linearGradient>
		<linearGradient id="g4" x2="1" gradientUnits="userSpaceOnUse" gradientTransform="matrix(1822.001,-50.768,68.812,2469.594,1038.578,1943.29)">
			<stop offset="0" stop-color="#444b8c"/>
			<stop offset=".996" stop-color="#26264f"/>
		</linearGradient>
		<linearGradient id="g5" x2="1" gradientUnits="userSpaceOnUse" gradientTransform="matrix(-1103.117,-902.55,938.721,-1147.325,2328.037,2376.658)">
			<stop offset="0" stop-color="#444b8c"/>
			<stop offset=".996" stop-color="#26264f"/>
		</linearGradient>
		<linearGradient id="g6" x2="1" gradientUnits="userSpaceOnUse" gradientTransform="matrix(-1334.78,-1803.91,1742.561,-1289.385,2632.387,2999.759)">
			<stop offset="0" stop-color="#aa80f9"/>
			<stop offset=".996" stop-color="#6165d7"/>
		</linearGradient>
		<linearGradient id="g7" x2="1" gradientUnits="userSpaceOnUse" gradientTransform="matrix(-1288.241,-1741.015,1056.514,-781.753,2195.029,3208.532)">
			<stop offset="0" stop-color="#aa80f9"/>
			<stop offset=".996" stop-color="#6165d7"/>
		</linearGradient>
		<linearGradient id="g8" x2="1" gradientUnits="userSpaceOnUse" gradientTransform="matrix(-30.128,229.434,-740.106,-97.186,1872.982,2836.287)">
			<stop offset="0" stop-color="#444b8c"/>
			<stop offset=".996" stop-color="#26264f"/>
		</linearGradient>
		<linearGradient id="g9" x2="1" gradientUnits="userSpaceOnUse" gradientTransform="matrix(17.063,18.802,-18.179,16.498,1851.932,848.521)">
			<stop offset="0" stop-color="#ff9085"/>
			<stop offset="1" stop-color="#fb6fbb"/>
		</linearGradient>
		<linearGradient id="g10" x2="1" gradientUnits="userSpaceOnUse" gradientTransform="matrix(617.591,0,0,275.233,1650.661,1692.5)">
			<stop offset="0" stop-color="#444b8c"/>
			<stop offset=".996" stop-color="#26264f"/>
		</linearGradient>
		<linearGradient id="g11" x2="1" gradientUnits="userSpaceOnUse" gradientTransform="matrix(2380.402,-3057.177,2892.325,2252.043,1926.213,1628.752)">
			<stop offset="0" stop-color="#ab316d"/>
			<stop offset="1" stop-color="#792d3d"/>
		</linearGradient>
		<linearGradient id="g12" x2="1" gradientUnits="userSpaceOnUse" gradientTransform="matrix(433.925,-557.294,569.881,443.725,2148.536,1352.098)">
			<stop offset="0" stop-color="#fcb148"/>
			<stop offset=".052" stop-color="#fdba46"/>
			<stop offset=".142" stop-color="#ffc244"/>
			<stop offset=".318" stop-color="#ffc444"/>
			<stop offset=".485" stop-color="#fdb946"/>
			<stop offset=".775" stop-color="#f99c4d"/>
			<stop offset=".866" stop-color="#f8924f"/>
			<stop offset="1" stop-color="#f8924f"/>
		</linearGradient>
		<linearGradient id="g13" x2="1" gradientUnits="userSpaceOnUse" gradientTransform="matrix(-272.055,-691.966,711.405,-279.698,2617.14,1153.776)">
			<stop offset="0" stop-color="#fcb148"/>
			<stop offset=".052" stop-color="#fdba46"/>
			<stop offset=".142" stop-color="#ffc244"/>
			<stop offset=".318" stop-color="#ffc444"/>
			<stop offset=".485" stop-color="#fdb946"/>
			<stop offset=".775" stop-color="#f99c4d"/>
			<stop offset=".866" stop-color="#f8924f"/>
			<stop offset="1" stop-color="#f8924f"/>
		</linearGradient>
		<linearGradient id="g14" x2="1" gradientUnits="userSpaceOnUse" gradientTransform="matrix(592.045,-760.37,456.982,355.819,2184.606,1404.573)">
			<stop offset="0" stop-color="#fcb148"/>
			<stop offset=".052" stop-color="#fdba46"/>
			<stop offset=".142" stop-color="#ffc244"/>
			<stop offset=".318" stop-color="#ffc444"/>
			<stop offset=".485" stop-color="#fdb946"/>
			<stop offset=".775" stop-color="#f99c4d"/>
			<stop offset=".866" stop-color="#f8924f"/>
			<stop offset="1" stop-color="#f8924f"/>
		</linearGradient>
		<linearGradient id="g15" x2="1" gradientUnits="userSpaceOnUse" gradientTransform="matrix(-35.785,-200.657,383.314,-68.359,1021.42,3267.172)">
			<stop offset="0" stop-color="#444b8c"/>
			<stop offset=".996" stop-color="#26264f"/>
		</linearGradient>
		<linearGradient id="g16" x2="1" gradientUnits="userSpaceOnUse" gradientTransform="matrix(36.885,-311.185,207.395,24.582,975.249,3223.453)">
			<stop offset="0" stop-color="#ffc444"/>
			<stop offset=".996" stop-color="#f36f56"/>
		</linearGradient>
		<linearGradient id="g17" x2="1" gradientUnits="userSpaceOnUse" gradientTransform="matrix(36.885,-311.189,274.249,32.507,1089.827,3237.034)">
			<stop offset="0" stop-color="#ffc444"/>
			<stop offset=".996" stop-color="#f36f56"/>
		</linearGradient>
		<linearGradient id="g18" x2="1" gradientUnits="userSpaceOnUse" gradientTransform="matrix(-35.785,-200.658,171.098,-30.513,1110.07,3251.362)">
			<stop offset="0" stop-color="#444b8c"/>
			<stop offset=".996" stop-color="#26264f"/>
		</linearGradient>
		<linearGradient id="g19" x2="1" gradientUnits="userSpaceOnUse" gradientTransform="matrix(-104.794,639.62,-166.33,-27.251,1027.932,2548.79)">
			<stop offset="0" stop-color="#311944"/>
			<stop offset="1" stop-color="#893976"/>
		</linearGradient>
		<linearGradient id="g20" x2="1" gradientUnits="userSpaceOnUse" gradientTransform="matrix(-104.794,639.62,-166.33,-27.251,1027.932,2548.79)">
			<stop offset="0" stop-color="#311944"/>
			<stop offset="1" stop-color="#893976"/>
		</linearGradient>
		<linearGradient id="g21" x2="1" gradientUnits="userSpaceOnUse" gradientTransform="matrix(-521.116,-85.918,275.635,-1671.799,1431.17,2873.972)">
			<stop offset="0" stop-color="#311944"/>
			<stop offset="1" stop-color="#893976"/>
		</linearGradient>
		<linearGradient id="g22" x2="1" gradientUnits="userSpaceOnUse" gradientTransform="matrix(465.613,-749.807,526.345,326.848,639.448,2919.339)">
			<stop offset=".494" stop-color="#ebeff2"/>
			<stop offset="1" stop-color="#ffffff"/>
		</linearGradient>
		<linearGradient id="g23" x2="1" gradientUnits="userSpaceOnUse" gradientTransform="matrix(641.243,0,0,299.921,585.519,2481.534)">
			<stop offset="0" stop-color="#aa80f9"/>
			<stop offset=".996" stop-color="#6165d7"/>
		</linearGradient>
		<linearGradient id="g24" x2="1" gradientUnits="userSpaceOnUse" gradientTransform="matrix(-79.87,100.47,-77.33,-61.474,1170.913,1938.01)">
			<stop offset="0" stop-color="#ffc444"/>
			<stop offset=".996" stop-color="#f36f56"/>
		</linearGradient>
		<linearGradient id="g25" x2="1" gradientUnits="userSpaceOnUse" gradientTransform="matrix(-160.991,202.515,-124.222,-98.751,1400.625,2135.447)">
			<stop offset="0" stop-color="#444b8c"/>
			<stop offset=".996" stop-color="#26264f"/>
		</linearGradient>
		<linearGradient id="g26" x2="1" gradientUnits="userSpaceOnUse" gradientTransform="matrix(-139.822,207.219,-121.184,-81.769,1386.691,2139.611)">
			<stop offset="0" stop-color="#ffc444"/>
			<stop offset=".996" stop-color="#f36f56"/>
		</linearGradient>
		<linearGradient id="g27" x2="1" gradientUnits="userSpaceOnUse" gradientTransform="matrix(40.055,-62.873,98.655,62.852,1388.489,2119.794)">
			<stop offset="0" stop-color="#aa80f9"/>
			<stop offset=".996" stop-color="#6165d7"/>
		</linearGradient>
		<linearGradient id="g28" x2="1" gradientUnits="userSpaceOnUse" gradientTransform="matrix(-38.629,48.593,-23.653,-18.803,1418.968,2225.195)">
			<stop offset="0" stop-color="#ffc444"/>
			<stop offset=".996" stop-color="#f36f56"/>
		</linearGradient>
		<linearGradient id="g29" x2="1" gradientUnits="userSpaceOnUse" gradientTransform="matrix(465.605,-749.794,932.15,578.843,796.941,3017.121)">
			<stop offset=".494" stop-color="#ebeff2"/>
			<stop offset="1" stop-color="#ffffff"/>
		</linearGradient>
		<linearGradient id="g30" x2="1" gradientUnits="userSpaceOnUse" gradientTransform="matrix(147.49,-366.346,251.3,101.173,776.158,2380.715)">
			<stop offset="0" stop-color="#444b8c"/>
			<stop offset=".996" stop-color="#26264f"/>
		</linearGradient>
		<linearGradient id="g31" x2="1" gradientUnits="userSpaceOnUse" gradientTransform="matrix(75.499,682.504,-907.831,100.424,954.472,665.693)">
			<stop offset="0" stop-color="#311944"/>
			<stop offset="1" stop-color="#893976"/>
		</linearGradient>
		<linearGradient id="g32" x2="1" gradientUnits="userSpaceOnUse" gradientTransform="matrix(294.552,594.937,-1394.933,690.628,1231.872,1204.314)">
			<stop offset="0" stop-color="#311944"/>
			<stop offset="1" stop-color="#893976"/>
		</linearGradient>
		<linearGradient id="g33" x2="1" gradientUnits="userSpaceOnUse" gradientTransform="matrix(431.797,555.168,-361.778,281.383,768.015,954.708)">
			<stop offset="0" stop-color="#311944"/>
			<stop offset="1" stop-color="#893976"/>
		</linearGradient>
		<linearGradient id="g34" x2="1" gradientUnits="userSpaceOnUse" gradientTransform="matrix(-287.59,401.042,-790.956,-567.199,1612.223,568.193)">
			<stop offset="0" stop-color="#311944"/>
			<stop offset="1" stop-color="#893976"/>
		</linearGradient>
		<linearGradient id="g35" x2="1" gradientUnits="userSpaceOnUse" gradientTransform="matrix(74.801,676.193,-907.834,100.425,978.729,666.162)">
			<stop offset="0" stop-color="#ffc444"/>
			<stop offset=".996" stop-color="#f36f56"/>
		</linearGradient>
		<linearGradient id="g36" x2="1" gradientUnits="userSpaceOnUse" gradientTransform="matrix(294.552,594.937,-1394.931,690.627,1256.077,1204.314)">
			<stop offset=".004" stop-color="#e38ddd"/>
			<stop offset="1" stop-color="#9571f6"/>
		</linearGradient>
		<linearGradient id="g37" x2="1" gradientUnits="userSpaceOnUse" gradientTransform="matrix(416.514,535.517,-361.78,281.385,792.307,954.819)">
			<stop offset="0" stop-color="#aa80f9"/>
			<stop offset=".996" stop-color="#6165d7"/>
		</linearGradient>
		<linearGradient id="g38" x2="1" gradientUnits="userSpaceOnUse" gradientTransform="matrix(-315.547,440.029,-749.662,-537.587,1680.088,504.611)">
			<stop offset="0" stop-color="#ff9085"/>
			<stop offset="1" stop-color="#fb6fbb"/>
		</linearGradient>
		<linearGradient id="g39" x2="1" gradientUnits="userSpaceOnUse" gradientTransform="matrix(288.272,582.253,-679.301,336.32,1115.486,1278.637)">
			<stop offset=".004" stop-color="#e38ddd"/>
			<stop offset="1" stop-color="#9571f6"/>
		</linearGradient>
		<linearGradient id="g40" x2="1" gradientUnits="userSpaceOnUse" gradientTransform="matrix(74.646,674.794,-761.609,84.249,944.134,670.666)">
			<stop offset="0" stop-color="#ffc444"/>
			<stop offset=".996" stop-color="#f36f56"/>
		</linearGradient>
		<linearGradient id="g41" x2="1" gradientUnits="userSpaceOnUse" gradientTransform="matrix(45.765,30.413,-17.259,25.971,2747.833,3167.162)">
			<stop offset="0" stop-color="#444b8c"/>
			<stop offset=".996" stop-color="#26264f"/>
		</linearGradient>
		<linearGradient id="g42" x2="1" gradientUnits="userSpaceOnUse" gradientTransform="matrix(3.562,-71.436,34.247,1.708,2791.01,3197.445)">
			<stop offset="0" stop-color="#ffc444"/>
			<stop offset=".996" stop-color="#f36f56"/>
		</linearGradient>
		<linearGradient id="g43" x2="1" gradientUnits="userSpaceOnUse" gradientTransform="matrix(45.765,30.413,-24.739,37.227,2751.271,3161.991)">
			<stop offset="0" stop-color="#444b8c"/>
			<stop offset=".996" stop-color="#26264f"/>
		</linearGradient>
		<linearGradient id="g44" x2="1" gradientUnits="userSpaceOnUse" gradientTransform="matrix(41.057,36.52,-20.726,23.3,2477.614,3212.411)">
			<stop offset="0" stop-color="#444b8c"/>
			<stop offset=".996" stop-color="#26264f"/>
		</linearGradient>
		<linearGradient id="g45" x2="1" gradientUnits="userSpaceOnUse" gradientTransform="matrix(13.775,-70.186,33.649,6.604,2518.864,3251.231)">
			<stop offset="0" stop-color="#ffc444"/>
			<stop offset=".996" stop-color="#f36f56"/>
		</linearGradient>
		<linearGradient id="g46" x2="1" gradientUnits="userSpaceOnUse" gradientTransform="matrix(41.056,36.52,-29.706,33.397,2481.742,3207.771)">
			<stop offset="0" stop-color="#444b8c"/>
			<stop offset=".996" stop-color="#26264f"/>
		</linearGradient>
		<linearGradient id="g47" x2="1" gradientUnits="userSpaceOnUse" gradientTransform="matrix(169.647,0,0,676.728,2700.801,2817.218)">
			<stop offset="0" stop-color="#311944"/>
			<stop offset="1" stop-color="#6b3976"/>
		</linearGradient>
		<linearGradient id="g48" x2="1" gradientUnits="userSpaceOnUse" gradientTransform="matrix(155.829,0,0,676.75,2700.801,2817.218)">
			<stop offset="0" stop-color="#311944"/>
			<stop offset="1" stop-color="#6b3976"/>
		</linearGradient>
		<linearGradient id="g49" x2="1" gradientUnits="userSpaceOnUse" gradientTransform="matrix(-466.698,-84.216,298.317,-1653.177,3014.628,2933.328)">
			<stop offset="0" stop-color="#311944"/>
			<stop offset=".741" stop-color="#5c3169"/>
			<stop offset="1" stop-color="#6b3976"/>
		</linearGradient>
		<linearGradient id="g50" x2="1" gradientUnits="userSpaceOnUse" gradientTransform="matrix(307.138,1566.409,-1449.667,284.248,2334.424,1711.762)">
			<stop offset="0" stop-color="#ffc444"/>
			<stop offset=".996" stop-color="#f36f56"/>
		</linearGradient>
		<linearGradient id="g51" x2="1" gradientUnits="userSpaceOnUse" gradientTransform="matrix(157.83,253.536,-130.934,81.508,2302.708,2141.032)">
			<stop offset="0" stop-color="#ffc444"/>
			<stop offset=".996" stop-color="#f36f56"/>
		</linearGradient>
		<linearGradient id="g52" x2="1" gradientUnits="userSpaceOnUse" gradientTransform="matrix(473.328,0,0,688.981,2450.126,2276.388)">
			<stop offset="0" stop-color="#ff9085"/>
			<stop offset="1" stop-color="#fb6fbb"/>
		</linearGradient>
		<linearGradient id="g53" x2="1" gradientUnits="userSpaceOnUse" gradientTransform="matrix(116.266,266.734,-271.321,118.266,2639.036,1868.254)">
			<stop offset="0" stop-color="#ffc444"/>
			<stop offset=".996" stop-color="#f36f56"/>
		</linearGradient>
		<linearGradient id="g54" x2="1" gradientUnits="userSpaceOnUse" gradientTransform="matrix(-25.224,-231.604,132.926,-14.477,2718.828,2082.073)">
			<stop offset="0" stop-color="#311944"/>
			<stop offset="1" stop-color="#6b3976"/>
		</linearGradient>
		<linearGradient id="g55" x2="1" gradientUnits="userSpaceOnUse" gradientTransform="matrix(129.815,297.818,-308.613,134.521,2630.346,1813.487)">
			<stop offset="0" stop-color="#ffc444"/>
			<stop offset=".996" stop-color="#f36f56"/>
		</linearGradient>
		<linearGradient id="g56" x2="1" gradientUnits="userSpaceOnUse" gradientTransform="matrix(290.224,277.131,-168.437,176.395,2440.003,2235.581)">
			<stop offset="0" stop-color="#ff9085"/>
			<stop offset="1" stop-color="#fb6fbb"/>
		</linearGradient>
		<linearGradient id="g57" x2="1" gradientUnits="userSpaceOnUse" gradientTransform="matrix(258.724,0,0,350.816,2312.455,2164.284)">
			<stop offset="0" stop-color="#ff9085"/>
			<stop offset="1" stop-color="#fb6fbb"/>
		</linearGradient>
		<linearGradient id="g58" x2="1" gradientUnits="userSpaceOnUse" gradientTransform="matrix(-450.613,1406.228,-1749.048,-560.467,2109.385,2257.856)">
			<stop offset="0" stop-color="#311944"/>
			<stop offset="1" stop-color="#893976"/>
		</linearGradient>
		<linearGradient id="g59" x2="1" gradientUnits="userSpaceOnUse" gradientTransform="matrix(-450.369,736.255,-1091.694,-667.792,2023.801,2455.724)">
			<stop offset="0" stop-color="#ff9085"/>
			<stop offset="1" stop-color="#fb6fbb"/>
		</linearGradient>
		<linearGradient id="g60" x2="1" gradientUnits="userSpaceOnUse" gradientTransform="matrix(75.424,0,0,394.698,1569.194,2899.241)">
			<stop offset="0" stop-color="#ff9085"/>
			<stop offset="1" stop-color="#fb6fbb"/>
		</linearGradient>
		<linearGradient id="g61" x2="1" gradientUnits="userSpaceOnUse" gradientTransform="matrix(-102.115,318.669,-199.582,-63.954,1649.834,2867.228)">
			<stop offset="0" stop-color="#ff9085"/>
			<stop offset="1" stop-color="#fb6fbb"/>
		</linearGradient>
		<linearGradient id="g62" x2="1" gradientUnits="userSpaceOnUse" gradientTransform="matrix(74.093,0,0,391.173,1673.87,2895.195)">
			<stop offset="0" stop-color="#ff9085"/>
			<stop offset="1" stop-color="#fb6fbb"/>
		</linearGradient>
		<linearGradient id="g63" x2="1" gradientUnits="userSpaceOnUse" gradientTransform="matrix(-57.199,178.502,-152.665,-48.92,1734.974,2967.41)">
			<stop offset="0" stop-color="#ff9085"/>
			<stop offset="1" stop-color="#fb6fbb"/>
		</linearGradient>
		<linearGradient id="g64" x2="1" gradientUnits="userSpaceOnUse" gradientTransform="matrix(72.796,0,0,387.706,1776.699,2891.221)">
			<stop offset="0" stop-color="#ff9085"/>
			<stop offset="1" stop-color="#fb6fbb"/>
		</linearGradient>
		<linearGradient id="g65" x2="1" gradientUnits="userSpaceOnUse" gradientTransform="matrix(-35.915,112.081,-129.58,-41.523,1828.213,3011.823)">
			<stop offset="0" stop-color="#ff9085"/>
			<stop offset="1" stop-color="#fb6fbb"/>
		</linearGradient>
		<linearGradient id="g66" x2="1" gradientUnits="userSpaceOnUse" gradientTransform="matrix(71.533,0,0,384.303,1877.732,2887.315)">
			<stop offset="0" stop-color="#ff9085"/>
			<stop offset="1" stop-color="#fb6fbb"/>
		</linearGradient>
		<linearGradient id="g67" x2="1" gradientUnits="userSpaceOnUse" gradientTransform="matrix(-155.178,484.265,-247.97,-79.46,1978.727,2724.015)">
			<stop offset="0" stop-color="#ff9085"/>
			<stop offset="1" stop-color="#fb6fbb"/>
		</linearGradient>
		<linearGradient id="g68" x2="1" gradientUnits="userSpaceOnUse" gradientTransform="matrix(70.303,0,0,380.964,1977.014,2883.478)">
			<stop offset="0" stop-color="#ff9085"/>
			<stop offset="1" stop-color="#fb6fbb"/>
		</linearGradient>
		<linearGradient id="g69" x2="1" gradientUnits="userSpaceOnUse" gradientTransform="matrix(-137.697,429.711,-228.792,-73.314,2070.05,2759.644)">
			<stop offset="0" stop-color="#ff9085"/>
			<stop offset="1" stop-color="#fb6fbb"/>
		</linearGradient>
		<linearGradient id="g70" x2="1" gradientUnits="userSpaceOnUse" gradientTransform="matrix(69.104,0,0,377.672,2074.59,2879.706)">
			<stop offset="0" stop-color="#ff9085"/>
			<stop offset="1" stop-color="#fb6fbb"/>
		</linearGradient>
		<linearGradient id="g71" x2="1" gradientUnits="userSpaceOnUse" gradientTransform="matrix(-165.03,515.009,-254.75,-81.632,2178.514,2689.408)">
			<stop offset="0" stop-color="#ff9085"/>
			<stop offset="1" stop-color="#fb6fbb"/>
		</linearGradient>
		<linearGradient id="g72" x2="1" gradientUnits="userSpaceOnUse" gradientTransform="matrix(67.935,0,0,374.448,2170.504,2875.998)">
			<stop offset="0" stop-color="#ff9085"/>
			<stop offset="1" stop-color="#fb6fbb"/>
		</linearGradient>
		<linearGradient id="g73" x2="1" gradientUnits="userSpaceOnUse" gradientTransform="matrix(-120.967,377.503,-208.909,-66.943,2255.329,2788.086)">
			<stop offset="0" stop-color="#ff9085"/>
			<stop offset="1" stop-color="#fb6fbb"/>
		</linearGradient>
		<linearGradient id="g74" x2="1" gradientUnits="userSpaceOnUse" gradientTransform="matrix(66.796,0,0,371.269,2264.798,2872.353)">
			<stop offset="0" stop-color="#ff9085"/>
			<stop offset="1" stop-color="#fb6fbb"/>
		</linearGradient>
		<linearGradient id="g75" x2="1" gradientUnits="userSpaceOnUse" gradientTransform="matrix(-72.957,227.675,-159.138,-50.995,2328.878,2896.192)">
			<stop offset="0" stop-color="#ff9085"/>
			<stop offset="1" stop-color="#fb6fbb"/>
		</linearGradient>
	</defs>
	<style>
		.s0 { fill: #f4f7fa } 
		.s1 { fill: url(#g1) } 
		.s2 { fill: #ffffff } 
		.s3 { fill: url(#g2) } 
		.s4 { fill: url(#g3) } 
		.s5 { fill: url(#g4) } 
		.s6 { fill: url(#g5) } 
		.s7 { fill: url(#g6) } 
		.s8 { opacity: .3;fill: url(#g7) } 
		.s9 { fill: url(#g8) } 
		.s10 { fill: url(#g9) } 
		.s11 { fill: #d8dee8 } 
		.s12 { fill: url(#g10) } 
		.s13 { opacity: .3;fill: #ffffff } 
		.s14 { fill: #bfc8d6 } 
		.s15 { opacity: .4;fill: #d8dee8 } 
		.s16 { fill: url(#g11) } 
		.s17 { fill: url(#g12) } 
		.s18 { fill: url(#g13) } 
		.s19 { fill: url(#g14) } 
		.s20 { fill: url(#g15) } 
		.s21 { fill: url(#g16) } 
		.s22 { fill: url(#g17) } 
		.s23 { fill: url(#g18) } 
		.s24 { fill: url(#g19) } 
		.s25 { opacity: .3;fill: url(#g20) } 
		.s26 { fill: url(#g21) } 
		.s27 { fill: url(#g22) } 
		.s28 { opacity: .3;fill: url(#g23) } 
		.s29 { fill: url(#g24) } 
		.s30 { fill: url(#g25) } 
		.s31 { fill: url(#g26) } 
		.s32 { fill: url(#g27) } 
		.s33 { fill: url(#g28) } 
		.s34 { fill: url(#g29) } 
		.s35 { fill: url(#g30) } 
		.s36 { fill: url(#g31) } 
		.s37 { fill: url(#g32) } 
		.s38 { fill: url(#g33) } 
		.s39 { fill: url(#g34) } 
		.s40 { fill: url(#g35) } 
		.s41 { fill: url(#g36) } 
		.s42 { fill: url(#g37) } 
		.s43 { fill: url(#g38) } 
		.s44 { fill: url(#g39) } 
		.s45 { fill: url(#g40) } 
		.s46 { fill: url(#g41) } 
		.s47 { fill: url(#g42) } 
		.s48 { fill: url(#g43) } 
		.s49 { fill: url(#g44) } 
		.s50 { fill: url(#g45) } 
		.s51 { fill: url(#g46) } 
		.s52 { fill: url(#g47) } 
		.s53 { opacity: .3;fill: url(#g48) } 
		.s54 { fill: url(#g49) } 
		.s55 { fill: #26264f } 
		.s56 { fill: url(#g50) } 
		.s57 { fill: url(#g51) } 
		.s58 { fill: url(#g52) } 
		.s59 { fill: url(#g53) } 
		.s60 { fill: url(#g54) } 
		.s61 { fill: url(#g55) } 
		.s62 { opacity: .3;fill: url(#g56) } 
		.s63 { fill: url(#g57) } 
		.s64 { fill: url(#g58) } 
		.s65 { fill: url(#g59) } 
		.s66 { opacity: .2;fill: url(#g60) } 
		.s67 { fill: url(#g61) } 
		.s68 { opacity: .2;fill: url(#g62) } 
		.s69 { fill: url(#g63) } 
		.s70 { opacity: .2;fill: url(#g64) } 
		.s71 { fill: url(#g65) } 
		.s72 { opacity: .2;fill: url(#g66) } 
		.s73 { fill: url(#g67) } 
		.s74 { opacity: .2;fill: url(#g68) } 
		.s75 { fill: url(#g69) } 
		.s76 { opacity: .2;fill: url(#g70) } 
		.s77 { fill: url(#g71) } 
		.s78 { opacity: .2;fill: url(#g72) } 
		.s79 { fill: url(#g73) } 
		.s80 { opacity: .2;fill: url(#g74) } 
		.s81 { fill: url(#g75) } 
	</style>
	<g id="Illustration">
		<g id="Layer">
			<path id="Layer" class="s0" d="m2357.8 514.3c-210.1-46.9-428.5-69.3-642.1-55-189.2 12.7-403.8 47.3-556.1 171.4-72.6 59.1-159.1 165.3-182.9 259.1 0 0-124.9 493.3-374.9 599-249.9 105.7-423.5 1910 1471.9 1733.8 0 0 1113.2-46.2 1180.3-1376.1 16.2-321.2 7.1-674.4-186.9-943-148.6-205.9-356.9-297.4-596.2-361.5-37.4-10-75.1-19.2-113.2-27.7z"/>
			<g id="Layer">
				<g id="Layer">
					<g id="Layer">
						<path id="SVGID_1_" class="s1" d="m1477.3 2913.7c190.3-147.1 210.2-451.7 114.6-531.4-49.7-41.4-110-4.9-155.6-54.9-50.5-55.5-1.3-127.7-12.9-283.6-6-80.6-16.8-226.6-103.3-276.4-85.8-49.4-160.4 45.2-255.7-2.9-90-45.3-57.5-147.1-168.3-238.1-10.3-8.4-127.4-102.2-218.4-61.7-92.4 41.2-125.1 206.4-74.5 309 45.9 93.1 147.2 107.1 142.5 162.6-5.1 61.1-129.8 64-141.1 126.3-16.3 90 232.1 149.4 240.8 290.8 5.1 83.2-78.5 99.9-94.9 205.4-21.2 136.2 92 275.5 189.4 344.3 141.1 99.5 372.5 138.1 537.4 10.6z"/>
						<g id="Clip-Path" clip-path="url(#cp1)">
							<g id="Layer" style="opacity: .7">
								<path id="Layer" class="s2" d="m1381.2 3048.1l7.3-2.1c-81.2-283.8-173.6-546.7-274.7-781.5-81-187.8-167.6-358.1-257.5-506.2-153.3-252.4-264.7-354.1-265.8-355.1l-5.1 5.7c1.1 1 111.9 102.2 264.6 353.8 141 232.2 347.7 643.8 531.2 1285.4z"/>
								<path id="Layer" class="s2" d="m870.1 1783c35.6-233.6-45.7-421-46.5-422.9l-7 3.1c0.8 1.9 81.3 187.3 46 418.6z"/>
								<path id="Layer" class="s2" d="m1128.9 2297.9c116.1-229.7 147.4-391.2 153.1-486.3 6.3-103.5-14.8-151.8-15.7-153.8l-7 3.1c0.2 0.5 21.4 49.2 15.1 151.1-5.9 94.2-37 254.4-152.3 482.5z"/>
								<path id="Layer" class="s2" d="m1314 2806.8c288-345.7 291.6-611 291.6-613.7h-7.7c0 0.7-1.1 69.5-39.4 181.2-33.7 98.5-104.5 252.5-250.4 427.6z"/>
								<path id="Layer" class="s2" d="m1014.3 2227.2c26.1 3.7 52.9 6.1 80.2 6.8l0.2-7.7c-178.5-4.5-334.1-80.4-433.2-143.4-107.3-68.2-173.2-136.1-173.9-136.8l-5.5 5.3c0.7 0.7 67.2 69.3 175.4 138 84.7 53.8 210.5 117.1 356.8 137.8z"/>
								<path id="Layer" class="s2" d="m1235.8 2709.3q21.2 3 43.2 4.6l0.5-7.6c-185.8-12.9-328.1-109.8-414.8-188.9-94-85.7-144.7-169.4-145.2-170.2l-6.5 3.9c0.5 0.9 51.7 85.5 146.6 171.9 80.7 73.7 209.4 162.7 376.2 186.3z"/>
							</g>
						</g>
					</g>
				</g>
				<g id="Layer">
					<g id="Layer">
						<path id="SVGID_00000089552114227936313660000003830598767795360130_" class="s3" d="m2338.5 2825.9c-240.3-118.8-329.1-447.3-242.2-555.4 45.2-56.3 119.2-29.6 158-94.4 43-71.7-26.6-139.8-48.3-312.8-11.2-89.3-31.5-251.3 52.1-324.8 82.8-72.8 185.3 14.1 278.8-59.3 88.4-69.4 30.4-173.5 131.5-297.3 9.4-11.5 116.8-139.8 225.1-115.5 110 24.6 182.2 198 149.4 321.2-29.7 112-137.2 149.6-119.9 209.1 19.1 65.6 155.9 41.5 182 107 37.6 94.7-220.8 214.3-199.2 370.8 12.8 92 130.6 99.7 113.1 217.4-28.2 189.9-66 235.4-157.3 331.9-132.3 139.9-314.7 305.1-523.1 202.1z"/>
						<g id="Clip-Path" clip-path="url(#cp2)">
							<g id="Layer" style="opacity: .7">
								<path id="Layer" class="s2" d="m2473.2 2951.7l-8.5-0.7c26.3-328 69.4-635.7 128.3-914.5 47.1-223.1 104.3-428.4 170-610 112-309.6 211.3-445.2 212.3-446.5l6.8 5c-0.9 1.4-99.8 136.3-211.3 445-103 284.8-238.3 780-297.6 1521.7z"/>
								<path id="Layer" class="s2" d="m2753.3 1456.5c-90.4-247.4-42.7-470.1-42.2-472.3l8.3 1.8c-0.5 2.2-47.6 222.6 41.9 467.6z"/>
								<path id="Layer" class="s2" d="m2583.7 2076.3c-177.4-225.6-247.1-395.2-274.3-497.8-29.6-111.7-17.2-169.2-16.6-171.6l8.3 1.9c-0.2 0.5-12.6 58.4 16.8 168.5 27.1 101.6 96.4 269.8 272.5 493.7z"/>
								<path id="Layer" class="s2" d="m2493.5 2673.2c-390.8-314.5-453.1-603.6-453.7-606.5l8.3-1.7c0.2 0.7 16.6 75.6 83 189.3 58.5 100.2 169.8 253 367.8 412.3z"/>
								<path id="Layer" class="s2" d="m2693.5 1973.8c-27.8 9.8-56.5 18.2-86.2 25l-1.9-8.3c194.1-44.2 347.4-161.4 441.8-252 102.4-98.2 159.4-187 160-187.9l7.2 4.6c-0.6 0.9-58.2 90.5-161.3 189.4-80.8 77.5-204.3 174.4-359.6 229.2z"/>
								<path id="Layer" class="s2" d="m2557.4 2549.4q-22.4 8-46.1 14.5l-2.2-8.2c200.1-55 334.4-192.2 411.7-297.7 83.9-114.4 120.8-216.9 121.2-218l8 2.9c-0.4 1-37.7 104.7-122.3 220.1-72.1 98.3-193.1 223.9-370.3 286.4z"/>
							</g>
						</g>
					</g>
				</g>
			</g>
			<g id="Layer">
				<path id="Layer" class="s4" d="m2609 2925.3c0 44.3-31.5 82.2-70.2 84.5l-1495.5 87.3c-44.4 2.5-80.7-34.1-80.7-81.8v-2145.2c0-47.6 36.3-84.9 80.7-83.1l1495.5 60.6c38.7 1.5 70.2 38.9 70.2 83.2z"/>
				<path id="Layer" class="s5" d="m2652.9 2925.3c0 44.3-31.5 82.2-70.2 84.5l-1495.5 87.3c-44.4 2.5-80.7-34.1-80.7-81.8v-2145.2c0-47.6 36.3-84.9 80.7-83.1l1495.5 60.6c38.7 1.5 70.2 38.9 70.2 83.2z"/>
				<path id="Layer" class="s6" d="m1044.2 871.5v2141.8c0 25.4 19.3 45 43 43.7l1182.8-67 312.7-17.8c20.7-1.1 37.5-21.3 37.5-45.1v-1997.5c0-23.8-16.8-43.7-37.5-44.5l-324-12.6-1171.5-45.4c-23.7-1-43 18.9-43 44.4z"/>
				<path id="Layer" class="s7" d="m2598.6 928v1906.7c0 8.9-6.6 16.4-15.3 16.9l-153.2 7.8-1344.2 68.7c-10 0.5-18-6.7-18-16.2v-2040.3c0-9.5 8.2-16.9 18.1-16.5l15.9 0.6 1481.4 55.7c8.7 0.3 15.3 7.8 15.3 16.6z"/>
				<path id="Layer" class="s8" d="m2430.4 2859.4l-1344.4 68.7c-9.9 0.5-18.1-6.7-18.1-16.2v-2040.3c0-9.5 8.2-16.9 18.1-16.5l15.9 0.6c46 62.6 141.5 134.9 334.1 196.7 454 145.9-60.7 782.2 513.1 986.9 467.2 166.6 229 604.2 481.3 820.1z"/>
				<path id="Layer" class="s9" d="m2010.7 2967.5l-304.1 16.7c-16.3 0.9-29.5-10.3-29.5-25.1v-1.2c0-14.8 13.2-27.5 29.5-28.3l304.1-16c15.8-0.8 28.6 10.3 28.6 24.9v1.1c0 14.5-12.8 27-28.6 27.9z"/>
				<path id="Layer" class="s10" d="m1875.2 857.6c0 7.9-6.9 14-15.5 13.7-8.6-0.3-15.6-7-15.6-14.9 0-7.9 7-14 15.6-13.6 8.6 0.3 15.5 7 15.5 14.8z"/>
			</g>
			<g id="Layer">
				<path id="Layer" class="s11" d="m2335.2 1854.3c-65.2 0-117.9-74-117.9-165.6 0-91.6 52.7-165.6 117.9-165.6 65.1 0 117.8 74 117.8 165.6 0 91.6-52.7 165.6-117.8 165.6z"/>
				<path id="Layer" class="s2" d="m1975 1287.4h-221.8c-227.5 0-411.8 184.4-411.8 411.8 0 121.4 98.3 219.7 219.7 219.7h605.9c121.4 0 219.8-98.3 219.8-219.7 0-227.4-184.4-411.8-411.8-411.8z"/>
				<path id="Layer" class="s2" d="m1936 2369.3h-143.9c-147.5 0-267.2-119.7-267.2-267.2 0-78.8 63.9-142.6 142.6-142.6h393.1c78.8 0 142.6 63.8 142.6 142.6 0 147.5-119.6 267.2-267.2 267.2z"/>
				<g id="Layer">
					<path id="Layer" class="s12" d="m2176.3 1830.1h-421.6c-57.2 0-104-43.8-104-97.8v-82.9c0-54 46.8-96.3 104-94.5l421.6 13.5c51 1.6 92 43.6 92 93.8v77c0 50.2-41 90.9-92 90.9z"/>
					<g id="Layer">
						<g id="Layer">
							<path id="Layer" class="s2" d="m1889.8 1686.5c0 36.1-30.7 64.9-68.9 64.4-38.6-0.5-70.1-30.6-70.1-67.3 0-36.6 31.5-65.5 70.1-64.4 38.2 1.1 68.9 31.2 68.9 67.3z"/>
							<path id="Layer" class="s2" d="m2174.7 1692.3c0 34.8-28.7 62.7-64.3 62.3-36-0.5-65.4-29.6-65.4-65 0-35.4 29.4-63.3 65.4-62.3 35.6 1 64.3 30.1 64.3 65z"/>
						</g>
					</g>
				</g>
				<path id="Layer" class="s13" d="m2017.1 1861.2c-62.7-73.7-34.9-132.6-116.8-232.5-112.8-137.3-244.4-121.8-274.6-215-8.3-25.8-9.3-61.2 13.1-110.2-171.8 49.5-297.4 207.9-297.4 395.7 0 121.4 98.3 219.7 219.7 219.7h528.1c-31.7-17.2-54.8-37.3-72.1-57.7z"/>
				<path id="Layer" class="s11" d="m1400.6 1853.2c-65.2 0-117.8-74.1-117.8-165.7 0-91.5 52.6-165.6 117.8-165.6 65.2 0 117.9 74.1 117.9 165.6 0 91.6-52.7 165.7-117.9 165.7z"/>
				<path id="Layer" class="s14" d="m1307.4 1760c-28.5 0-51.6-32.4-51.6-72.5 0-40 23.1-72.4 51.6-72.4 28.5 0 51.5 32.4 51.5 72.4 0 40.1-23 72.5-51.5 72.5z"/>
				<path id="Layer" class="s15" d="m1971.5 2222.2c-19.8-92.8-238.2-90.5-244.1-151.1-4.6-46.7 120.8-93 136.6-98.8 13.4-5 26.8-9.2 40-12.8h-236.5c-78.7 0-142.6 63.8-142.6 142.6 0 147.5 119.7 267.2 267.2 267.2h143.9c13.9 0 27.4-1.1 40.7-3.1-12.5-15.5-20.7-32.5-22.7-51.1-4.3-41 25.1-57 17.5-92.9z"/>
				<path id="Layer" class="s11" d="m1867.6 1995c-125.7 0-227.3-12.3-227.3-27.5 0-15.3 101.6-27.6 227.3-27.6 125.7 0 227.3 12.3 227.3 27.6 0 15.2-101.6 27.5-227.3 27.5z"/>
			</g>
			<g id="Layer">
				<g id="Layer">
					<path id="Layer" class="s16" d="m2774.6 590.4l-555-12c-39.5-0.5-71.5 31.6-71.2 71.5l2.9 498.1c0.2 39.6 32.3 71.8 71.7 71.9l29.9 0.1 0.6 122.5c0.1 18.3 22.2 27.3 40.3 7l113.2-129.2 368-1.5c35.2 0.1 63.6-30.1 63.6-67.5l-0.1-491.8c0-37.7-28.6-68.6-63.9-69.1z"/>
					<path id="Layer" class="s17" d="m2793 1205.4l-553 1.4c-39.5-0.1-71.7-32.2-71.9-71.9l-2.8-498.7c-0.2-40 31.8-72 71.4-71.6l556 11.7c35.4 0.4 64 31.3 64 69v492.5c0 37.4-28.5 67.6-63.7 67.6z"/>
					<path id="Layer" class="s18" d="m2188.6 1148l-2.9-524.7c-0.1-21.4 16.9-38.5 38-38.2l580.7 10.8c18.8 0.2 34.1 16.7 34.1 36.8l0.1 517.4c0 19.9-15.2 36-34 36l-577.8 0.3c-21-0.1-38.1-17.2-38.2-38.4z"/>
					<path id="Layer" class="s19" d="m2270.5 1329.5l-0.7-147.9 176.6 0.3-141.1 160.8c-12 13.8-34.7 5.2-34.8-13.2z"/>
				</g>
				<g id="Layer">
					<g id="Layer">
						<path id="Layer" class="s2" d="m2413.6 890.6c0.1 22.5-19.1 40.7-42.8 40.7-23.8 0-43.2-18.3-43.3-40.9-0.1-22.6 19.1-40.8 42.9-40.8 23.8 0.1 43.1 18.4 43.2 41z"/>
						<path id="Layer" class="s2" d="m2559.8 890.8c0 22.4-19 40.6-42.5 40.6-23.6 0-42.8-18.3-42.9-40.7 0-22.5 19.1-40.7 42.7-40.6 23.5 0 42.6 18.3 42.7 40.7z"/>
						<path id="Layer" class="s2" d="m2704.7 891.1c0 22.3-18.9 40.4-42.2 40.3-23.4 0-42.4-18.1-42.4-40.5-0.1-22.4 18.9-40.5 42.3-40.4 23.3 0.1 42.2 18.2 42.3 40.6z"/>
					</g>
				</g>
			</g>
			<g id="Layer">
				<path id="Layer" class="s20" d="m975.3 3166.5c-7.3 11.7-6.2 17.1-4.9 19.6 3.7 7.3 14.9 1.9 42.2 8.1 3.2 0.7 9.3 2.2 17.2 1.2 6.8-0.9 14.9-3.6 14.8-5.4-0.1-0.6-1.2-1-1.7-1.2-7.4-2.4-53.9-22.1-53.9-22.1z"/>
				<path id="Layer" class="s21" d="m974.4 3139.1l1.5 27.9c0 0 10.9 9.6 15-0.2 3-7 5-26.7 5-26.7z"/>
				<path id="Layer" class="s22" d="m1112.3 3167.3l-14.9 30.4-16.6-4.5 7-28.8z"/>
				<path id="Layer" class="s23" d="m1090.3 3214.5c-7.1-10.5-14.5-10.4-15.2-17.1-0.6-5.4 3.2-11.5 8.3-13.4 7.1-2.7 14.8 3.5 16.5 4.9 11.7 9.5 7 22 18.3 28.7 2.2 1.4 5.9 3 9.5 7.2 1.5 1.7 5.3 6.1 4.1 8.7-1.5 3-9 2.1-16.1 1.3-8.5-1-12.8-1.5-16.6-4.5-5.3-4.2-3.3-7.6-8.8-15.8z"/>
				<path id="Layer" class="s24" d="m953.1 2473c-3.6 64.2-0.2 119.6 5.6 165.2 6.2 49 11.4 57.8 11.8 91.3 1 73-23.2 81.4-34.3 163-12.2 90 5.8 163.8 13 192 6.3 24.6 13.3 44.7 18.7 58.7 7.7 7.9 20.6 6.2 34.2 4.5 11.7-81.5 24.3-158.2 36-239.8q39.1-183 78.3-366.1-81.7-34.4-163.3-68.8z"/>
				<path id="Layer" class="s25" d="m1002.1 3147.7c11.7-81.5 24.3-158.2 36-239.8q39.1-183 78.3-366.1-81.7-34.4-163.3-68.8c-0.3 4.2-0.4 8.3-0.6 12.5 72.9 74.7 83.8 130 79.9 166.7-4.6 44.6-30.9 64.8-31.5 129.9-0.4 46.6 12.9 56 9.4 97.7-4.5 53.9-30.1 82.2-43.9 112.4-13.4 29.1-20.8 71.4-4.8 133.7 2.3 6.5 4.4 12.3 6.3 17.3 7.7 7.9 20.6 6.2 34.2 4.5z"/>
				<path id="Layer" class="s26" d="m1047 2542.9c35.4 72.9 53.7 129.4 63.3 164.2 5.9 21.2 10.9 43.3 10.2 71.5-0.9 34.6-10.1 62.4-17.5 80-10.6 22.6-20.7 49-28.1 79.2-24.1 97.9-7.8 182.9 6.5 232.2q14.4 6.8 28.9 13.5c27.7-61.1 62.7-148.2 91.7-256.8 15.8-59.3 28-105.8 33-165.8 5.3-63.2 4.6-164-37.2-287.9q-75.4 34.9-150.8 69.9z"/>
				<path id="Layer" class="s27" d="m1115.4 1997.2c62.3 16.1 109.5 31.4 128.3 66.3 19.8 36.9-18.5 60.2-34.7 136.2-24.7 116.2 39.2 165.7 9.9 282.4-9.8 39.4-25.9 69.1-36.8 86.6-21.8 15-56.2 35-101.5 46.8-66 17.1-96.5 1.5-183.2-0.8-141.8-3.6-166.3 35.6-228 5.1-62.3-30.8-103.3-103.3-87.2-131.6 9.7-16.9 34.6-3.8 73.4-22.3 50-23.9 45.2-62.5 86.6-91.9 59.5-42.2 109.1 9.5 160-27.2 51.5-37.2 65.6-136.9 50.1-198.2-10.2-40-6.9-82.3-13.5-123.1-0.6-3.4-0.8-8.7 1.8-14.6 9.8-22.3 52.1-23.2 84.2-23.6 48.8-0.6 85.5 8.6 90.6 9.9z"/>
				<path id="Layer" class="s28" d="m680.5 2575.9c20.6-11.4 13.1-49.2 43.7-66.4 28.3-16 47.3 9.6 87.9 0.7 52-11.4 53.4-60.5 103.4-72 35.9-8.3 44.6 14.9 95 20 50.3 5.2 118-10.2 164.3-60.1 19.6-21.2 31.6-44.6 38.8-66.5 9.9 44.6 21 87.9 5.3 150.5-9.8 39.4-25.9 69.1-36.8 86.6-21.8 15-56.2 35-101.5 46.8-66 17.1-96.5 1.5-183.2-0.8-141.8-3.6-166.3 35.6-228 5.1-39.8-19.6-70.8-56.4-83.9-87.7 52.4 45.2 80 52 95 43.8z"/>
				<path id="Layer" class="s29" d="m1161 1890.8c0 0 14.7 34.2 13.9 57.2-0.8 23-26.6 19.2-26.6 19.2l-0.2 14.6c-0.2 12.4 6.9 23.8 18.2 29l9.9 4.7c0 0-67.9 8.7-102.2-20.1l10.6-0.1c15-0.2 27.7-11 30.5-25.7l1.1-6.2c0 0-5.6-72.5 44.8-72.6z"/>
				<g id="Layer">
					<path id="Layer" class="s30" d="m1229 2263.7l101.5-175.2c1.3-2.1 3.8-3.2 6.3-2.6l142 33.2c3.8 0.8 5.6 5.2 3.5 8.5l-117.8 188.4c-1.4 2.2-4.2 3.2-6.7 2.3l-124.9-45.1z"/>
					<path id="Layer" class="s31" d="m1254 2243.8l82.2-141.8c1-1.8 3.1-2.6 5-2.2l115 26.9c3.1 0.7 4.6 4.2 2.9 6.9l-95.4 152.5c-1.1 1.9-3.4 2.7-5.5 1.9l-101-36.5z"/>
					<path id="Layer" class="s32" d="m1360.5 2103.6l6.5-11.4c0.9-1.5 2.7-2.3 4.5-1.9l59.2 13.3c2.7 0.6 4.1 3.7 2.6 6.1l-7.2 12.4c-0.9 1.6-2.8 2.4-4.6 1.9l-58.4-14.3c-2.7-0.6-4-3.7-2.6-6.1z"/>
					<path id="Layer" class="s2" d="m1438 2152.4q-0.2 0-0.3-0.1l-104.2-24.5c-1.3-0.4-2.1-1.6-1.8-2.9 0.3-1.3 1.7-2.1 2.9-1.8l104.2 24.6c1.3 0.3 2.1 1.6 1.8 2.8-0.3 1.3-1.5 2-2.6 1.9z"/>
					<path id="Layer" class="s2" d="m1431.4 2162.5q-0.1 0-0.3-0.1l-103.5-25.5c-1.3-0.3-2.1-1.6-1.7-2.9 0.3-1.3 1.6-2.1 2.9-1.8l103.5 25.6c1.3 0.3 2 1.6 1.7 2.9-0.3 1.2-1.4 1.9-2.6 1.8z"/>
					<path id="Layer" class="s2" d="m1376.8 2173.7q-0.2 0-0.3-0.1l-56.3-15.5c-1.3-0.3-2-1.7-1.7-2.9 0.4-1.3 1.7-2.1 3-1.7l56.2 15.5c1.3 0.4 2.1 1.7 1.7 3-0.3 1.1-1.4 1.8-2.6 1.7z"/>
				</g>
				<path id="Layer" class="s33" d="m1393.3 2269.9c0 0 25.2-13.5 29.1-24.5 3.9-11 5.4-32.2 5.4-32.2l-16.8 28.4c0 0-6.4-2.6-8.2-12.7-1.8-10.1-7.6-1.6-6.4 6 1.2 7.6-3.1 35-3.1 35z"/>
				<path id="Layer" class="s34" d="m1233.6 2051.3c11.6 8.8 28.9 24 43.2 47.1 40.6 65.7 15.5 128.6 52 155.6 10.4 7.7 29.4 15 65.9 6.3l12.7 8.6c0 0 7.8 85.5-94.4 78-102.2-7.5-139.7-139.4-139.7-139.4z"/>
				<path id="Layer" class="s35" d="m1147.9 1922.5c-3.5-0.6-6-5.2-8.4-4.1-2.6 1.1-2.9 7.5-1.1 12.2 1.5 3.8 4.2 6.1 5.7 7.2-3 3.5-6.8 8.9-8.9 16.3-4.5 16.3 3.3 30.4 6.3 38.5 13.6 36.6-16.7 90.1-47.3 115.8-24.8 20.9-34.7 10.9-50 28.4-29.6 34.1 3.8 77-14 124.7-27.1 72.6-146.2 85-151.2 85.4-1.9 0.2-3.2 0.3-5.2 0.4-53.3 4-134.1 10.1-186.7-37.7-39.4-35.8-54-93.7-46.7-142.9 1.9-13 10-62.1 53.6-99.2 6.9-5.8 48-40.5 99.2-36.8 27.1 2 31.8 12 53 7.9 29.1-5.8 48.7-30.1 60.9-45.2 22.4-27.8 14.8-34.8 30.3-48.1 30.5-26 61.7-1 93.8-23.6 31.6-22.2 16.5-57.2 46.9-76.2 31.3-19.5 87.1-7.2 96.9 20.1 8.5 23.4-16.6 58.6-27.1 56.9z"/>
			</g>
			<g id="Layer">
				<g id="Layer">
					<g id="Layer">
						<path id="Layer" class="s36" d="m1016.9 986.6l24.6-0.1c0 0 58.8-74.4 98.5-78.5l3.7-209.5c-152.2 0.5-286.5 86.2-347.6 212.9z"/>
						<path id="Layer" class="s37" d="m1310.4 1079.5c-12.4 68.8-75.2 122.9-152 125.3-18.9 0.6-41-10.7-41-10.7 0 0-20.2 1.1-23.6-0.3l-120 185.7c55.8 25.2 118.7 37.5 184.6 33.7 191.6-11 342.2-155.2 358.9-328.8z"/>
						<path id="Layer" class="s38" d="m936.3 1360l24 0.8 97-187c-36.2-26.8-59.4-68.6-59.4-115.9 0-11.4 1.3-22.5 3.9-33.3l-197.6-74.6-24.1 0.3c-11.9 34.9-18.3 72.1-18.3 110.5 0 127.4 69.9 237.1 174.5 299.2z"/>
					</g>
					<g id="Layer">
						<path id="Layer" class="s39" d="m1181.9 908.9c70 10.4 123.8 64.6 130.2 131.6l338.2 9.9q0-0.2 0-0.3c0 0 0-0.1 0-0.2 0-0.2 51-8.2 51-8.2 0-2.3-462.1-488.1-462.1-488.1l-51.2 8.4c0 0-4.1 231.3-6.1 346.9z"/>
					</g>
				</g>
				<g id="Layer">
					<g id="Layer">
						<path id="Layer" class="s40" d="m1041.1 986.6c24.5-42.8 70.1-73.1 123.1-78.6l3.7-209.5c-152.2 0.5-286.4 86.2-347.6 212.9z"/>
						<path id="Layer" class="s41" d="m1334.6 1079.5c-12.4 68.8-75.2 122.9-152 125.3-22.9 0.7-44.8-3.2-64.6-11l-120 185.7c55.8 25.2 118.8 37.5 184.6 33.7 191.6-11 342.2-155.2 358.9-328.8z"/>
						<path id="Layer" class="s42" d="m960.5 1360l121-186.2c-36.2-26.8-59.4-68.6-59.4-115.9 0-11.4 1.3-22.5 3.9-33.3l-221.7-74.3c-11.9 34.9-18.3 72.1-18.3 110.5 0 127.4 69.9 237.1 174.5 299.2z"/>
					</g>
					<g id="Layer">
						<path id="Layer" class="s43" d="m1232.9 900.1c70 10.4 123.8 64.6 130.2 131.6l338.2 9.8q0-0.2 0-0.4c0-248.2-197.7-460.5-462.3-487.9z"/>
					</g>
				</g>
				<g id="Layer" style="opacity: .3">
					<path id="Layer" class="s44" d="m1136.4 1199.8q-9.5-2.5-18.4-6l-120 185.7c55.8 25.2 118.7 37.5 184.6 33.7 53.2-3 103.3-16.4 148.2-37.8-45.3-6.8-85.8-24-118.1-52.7-36.8-32.6-60.7-78-76.3-122.9z"/>
				</g>
				<g id="Layer" style="opacity: .3">
					<path id="Layer" class="s45" d="m1096.1 781.6c-14.2-26.2-34.6-46.1-57.4-61.3-96.2 33.1-175.4 102-218.4 191.1l220.8 75.2c15.4-26.8 39-48.7 67.4-62.7 5.8-55.7 12.3-96.7-12.4-142.3z"/>
				</g>
			</g>
			<g id="Layer">
				<path id="Layer" class="s46" d="m2759.4 3185.7c1.1-6.4 21.9-12.2 32.2-3.6 5.1 4.3 8.6 13 5.7 16.9-1.1 1.4 3.3 3.9-0.9 4-14 0.1-38.2-10.9-37-17.3z"/>
				<path id="Layer" class="s47" d="m2782.1 3185.8l21.6 1c-7.5-13.5 1.5-50.5 1.5-50.5l-23.3 0.7c0 0 0.6 10.7 2 26.7 0.5 5.4-0.4 13.6-1.8 22.1z"/>
				<path id="Layer" class="s48" d="m2779.3 3185.4c0 0 25.7-5.9 28.5-0.8 2.8 5.1 4.9 18.8-11.4 18.4-16.3-0.5-18.6-13.2-17.1-17.6z"/>
				<path id="Layer" class="s49" d="m2486.4 3232.4c2.1-6.2 23.5-9 32.5 0.9 4.4 5 6.7 14.1 3.2 17.5-1.2 1.3 2.8 4.4-1.4 3.8-13.9-1.7-36.3-16-34.3-22.2z"/>
				<path id="Layer" class="s50" d="m2511.7 3238.4l21.2 4.2c-5.4-14.6 8.8-49.8 8.8-49.8l-23.2-2.7c0 0-1 10.7-1.8 26.7-0.3 5.4-2.4 13.4-5 21.6z"/>
				<path id="Layer" class="s51" d="m2506.2 3234.9c0 0 26.3-2.3 28.3 3.2 2.1 5.4 2.3 19.3-13.8 16.5-16.1-2.7-16.6-15.6-14.5-19.7z"/>
				<path id="Layer" class="s52" d="m2700.8 2492.8c5.8 98.6 13.8 201.2 24.7 307.4 12.6 122.9 28 240.5 45.1 352.2 21.2 7.2 40.8 0 40.8 0 0 0 24.7-40.6 43.6-148.3 12.1-69.2 13-68.3 13.1-80.4 0.7-60.8-20.7-78.4-24.7-132.8-3.8-50.3 12.2-65.4 21.8-122 7.3-43.6 10.1-107.1-13.1-190q-75.7 6.9-151.3 13.9z"/>
				<path id="Layer" class="s53" d="m2700.8 2492.8c5.8 98.6 13.8 201.2 24.7 307.4 12.6 122.9 28 240.5 45.1 352.2 21.2 7.2 40.8 0 40.8 0-0.3-10.4-1-26-3.2-44.8-5.7-49.9-14.8-64.1-15.8-94.7-1.2-39.2 13-40.4 15.8-79 4.4-59.8-28.5-73.9-31.6-126.3-3.2-55.3 31.4-73.5 57.9-142.1 15.7-40.5 29.6-101.3 17.6-186.6q-75.7 6.9-151.3 13.9z"/>
				<path id="Layer" class="s54" d="m2594.6 2489.7c-29 97.6-57.1 218.9-72.7 359.9-15.2 136.8-15 258.3-8.8 358.4q13.9 3.8 27.7 7.7c53.6-56.1 72.7-107.6 80-145.2 10.8-55.7-5.5-74.6 8.7-137.5 3.3-14.5 7.9-30 61.1-134.4 50.8-99.6 61.2-114.1 69.8-149.8 12.3-51.1 9.1-96.4 4.4-126.7q-85.1-16.2-170.2-32.4z"/>
				<g id="Layer">
					<path id="Layer" class="s55" d="m2366.1 2278.6l-90.9-212.9c-4.5-10.7 1.6-22.8 12.8-25.6l166.6-40.4c9-2.2 18.2 2.5 21.7 11.1l83.6 204.7c4.2 10.2-1.3 21.7-11.8 25l-159.3 48.7c-9.1 2.8-18.9-1.8-22.7-10.6z"/>
					<path id="Layer" class="s56" d="m2370.3 2268.4l-85-198.9c-4.2-10 1.5-21.3 12-23.9l155.6-37.8c8.4-2 17 2.4 20.3 10.4l78.1 191.2c3.9 9.5-1.3 20.3-11.1 23.3l-148.7 45.5c-8.6 2.7-17.7-1.6-21.2-9.8z"/>
				</g>
				<path id="Layer" class="s57" d="m2317.8 2209.9l-2.7-25.1-14.5-27.6c-1.9-3.7-2.9-7.9-2.9-12.1v-27.4l17.4 40.4c0 0 11.5-10.4 15.8-12.6 4.4-2.2 3.8 6.6 0.6 9.9-3.3 3.2 1.6 30-1.7 32.7l1.1 16.3z"/>
				<path id="Layer" class="s58" d="m2456.4 2050.1c13.6-33.2 42.7-52.3 57.8-62.2 35.8-23.5 58.7-19.2 140.8-31.7 109.4-16.6 122.5-32.4 159.3-19.6 48.3 16.8 73.5 60.6 85.1 80.7 58.3 101.3-9.9 152.8 7.6 354.6 7.2 82.4 25.5 154.1-18.5 196.4-9.3 8.9-19.7 13.6-40.4 22.9-82.2 37-156 30.7-200.8 26.2-49.3-4.9-74.2-7.7-87.2-25.1-20.9-27.8 0.6-63.2 4.3-124.4 2.7-43.9-7.3-78.7-27.3-148.3-46.4-161.9-106.7-205.9-80.7-269.5z"/>
				<g id="Layer">
					<g id="Layer">
						<path id="Layer" class="s59" d="m2639.6 1896.5c-5-17.7 3.7-34.2 5.6-37.7 8-14.8 10.1-16.9 13.9-19.4l5.4-3.3c0 0 0.3-0.1 0.6-0.3 3.4-1.2 15.1-1.5 17.4-1 7.6 1.6 15.6 32.3 13.3 75.8q0.5 2.5 0.9 5 1.8 10.3 2.9 20.2c0.7 6.3 9.6 6.1 15.9 5.7 25.7-1.6 38.2 0.5 39.3 4.4 2.1 7.1-28.4 30.5-65.9 35.8-50.4 0.4-91.4-5-87-12.9 2-3.6 41-13.8 52-23.9 10-9.2 9.2-18.8 10.1-25.7-3.1-1.5-20.8-9.6-24.4-22.7z"/>
						<path id="Layer" class="s60" d="m2648.8 1823.7c0.1 13.5 6.4 27.9 9.6 30.2 0.5 0.3 2.8 2.1 4.9 5.3 0.3 0.4 0.6 1 0.8 1.6 2.9 8.5-10.5 18.5-7.9 22.3 1.8 2.7 11-1 12.1 1.4 1 2.3-6.6 6.9-5.4 9.6 0.9 2 5.5 0.2 8.5 3.3 1.5 1.5 1 2.7 2.6 7.5 0.9 2.6 2.1 5.5 3.1 7.2 4.6 7.9 17.8 10.8 20.3 7.6 0.8-0.9 0.1-1.6 0.9-4.6 0 0 0.6-2.7 2.5-5.9 2.8-4.5 9.4-7.8 16-12.5 12.3-8.9 15.6-16.4 16.6-19 0.4-0.9 0.6-1.6 0.8-2.1 3.2-9.9 3.2-24.5-1.3-33.4-7.5-15.1-24.3-7.9-38.1-22.8-15.9-17.2-6.5-40.6-15.1-43.2-9.5-2.9-31 22.6-30.9 47.5z"/>
						<path id="Layer" class="s61" d="m2661 1879.9c3.3-4.5 9.1-0.3 9.1 5.6 0.1 5.9-5.6 12-11.1 10.8-5.6-1.1-2.4-10.3 2-16.4z"/>
					</g>
				</g>
				<path id="Layer" class="s62" d="m2689.9 2559.6c-14.5-28.9 21-67.3-2.2-111.3-19.7-37.4-55.5-29-72-63.3-19.9-41.4 23.4-72.3 21.8-135.3-1.8-75.2-66.6-150.6-104.7-144-24.7 4.3-27.9 41.1-45.2 81.4 15.3 33.6 33.3 75.8 49.5 132.5 20 69.6 30 104.4 27.3 148.3-3.7 61.2-25.2 96.6-4.3 124.4 13 17.4 37.9 20.2 87.2 25.1 44.8 4.5 118.6 10.8 200.8-26.2 10.4-4.7 18.2-8.2 24.5-11.6-128.4 19.3-171.2 2.9-182.7-20z"/>
				<path id="Layer" class="s63" d="m2312.9 2205q12-5.2 24-10.4c13.6 13.9 30.8 27.3 45.3 22.9 21.6-6.5 16.2-46.3 42.6-116.2 29.8-79.2 63.6-99.5 80.7-106.9 9.5-4.1 16.1-6.8 24-4.9 36.4 8.9 48.4 103.7 38.2 174.6-5.8 39.9-17 118.3-81.3 155.5-9.1 5.2-59.4 34.3-109.1 11.4-42.5-19.6-68.7-69.8-64.4-126z"/>
			</g>
			<g id="Layer">
				<path id="Layer" class="s64" d="m2404.7 2536.5l-951.7 8.1c-16.8 0.2-30.8 14.6-30.8 32.1v35.4 18.9 510.7c0 17.5 14.1 30.9 30.8 29.9l13.8-0.8 16.4-34.2 932.1-57.1c14.1-0.9 14.7 19.2 14.7 3.1v-467.5-17.2-32.4c0-16.1-11.2-29.1-25.3-29z"/>
				<g id="Layer">
					<g id="Layer">
						<path id="Layer" class="s2" d="m2443.8 2597.9v484.7c0 14.8-9.4 27.7-22 30.2-1 0.3-1.9 0.4-3 0.5l-951.9 58.3c-16.7 1.1-30.9-12.4-30.9-29.9v-529.6z"/>
						<path id="Layer" class="s65" d="m2418.9 2536.5l-951.3 8.1c-16.7 0.2-30.2 14.6-30.2 32.1v54.3l1007-15.9v-49.6c0-16.1-11.4-29.1-25.5-29z"/>
						<path id="Layer" class="s2" d="m1506.7 2586.5c0 7.8-6 14.2-13.3 14.3-7.4 0.1-13.4-6.2-13.4-14 0-7.7 6-14.1 13.4-14.2 7.3-0.1 13.3 6.2 13.3 13.9z"/>
					</g>
					<g id="Layer">
						<path id="Layer" class="s66" d="m1644.6 3092.4l-75.4 4.2v-393l75.4-1.7z"/>
						<path id="Layer" class="s67" d="m1644.6 3092.4l-75.4 4.2v-186.6l75.4-3z"/>
						<path id="Layer" class="s68" d="m1748 3086.7l-74.1 4.1v-389.6l74.1-1.6z"/>
						<path id="Layer" class="s69" d="m1748 3086.7l-74.1 4.1v-92.5l74.1-3.5z"/>
						<path id="Layer" class="s70" d="m1849.5 3081l-72.8 4.1v-386.1l72.8-1.6z"/>
						<path id="Layer" class="s71" d="m1849.5 3081l-72.8 4.1v-48.1l72.8-3.8z"/>
						<path id="Layer" class="s72" d="m1949.3 3075.5l-71.6 4v-382.8l71.6-1.5z"/>
						<path id="Layer" class="s73" d="m1949.3 3075.5l-71.6 4v-299.9l71.6-2z"/>
						<path id="Layer" class="s74" d="m2047.3 3070.1l-70.3 3.9v-379.4l70.3-1.6z"/>
						<path id="Layer" class="s75" d="m2047.3 3070.1l-70.3 3.9v-263.5l70.3-2.3z"/>
						<path id="Layer" class="s76" d="m2143.7 3064.7l-69.1 3.8v-376.1l69.1-1.5z"/>
						<path id="Layer" class="s77" d="m2143.7 3064.7l-69.1 3.8v-321.4l69.1-1.9z"/>
						<path id="Layer" class="s78" d="m2238.4 3059.5l-67.9 3.7v-372.9l67.9-1.5z"/>
						<path id="Layer" class="s79" d="m2238.4 3059.5l-67.9 3.7v-229.1l67.9-2.3z"/>
						<path id="Layer" class="s80" d="m2331.6 3054.3l-66.8 3.7v-369.8l66.8-1.5z"/>
						<path id="Layer" class="s81" d="m2331.6 3054.3l-66.8 3.7v-128.4l66.8-2.9z"/>
					</g>
				</g>
				<path id="Layer" class="s15" d="m2422.2 3112.8q-1.6 0.4-3.3 0.5l-951.9 58.3c-16.7 1.1-31-12.4-31-29.9v-503.2c10.3 27.5 36.5 78.5 132.5 87.5 16.6 1.6 35.5 1.9 56.3 0.6 6.6-0.4 13.3-0.7 19.7-0.8 9.9-0.2 19.8 0 29.3 0.5 26.4 1.2 51.2 4.9 74.1 10.8 10 2.5 19.6 5.4 28.8 8.7 27.4 9.7 51.8 22.7 72.8 38.3 10.2 7.5 19.6 15.7 28.2 24.4 37.8 38.2 59.7 86.6 63.2 139 0.6 8.8 3.5 16.3 8.4 22.5 6.2 7.9 15.7 13.9 27.7 18.5 18.3 7 42.5 10.8 70.3 13 8.8 0.8 17.9 1.3 27.3 1.8 21.8 1.1 45.2 1.7 69.1 2.5 8.9 0.3 17.8 0.6 26.8 1 22.8 1 45.7 2.4 68 4.8 8.9 1 17.6 2.1 26.3 3.5 23.7 3.6 46.3 8.6 66.8 15.9 42.6 15.3 75.9 40.3 90.6 81.8z"/>
			</g>
		</g>
	</g>
</svg>